#N canvas 615 255 664 495 10;
#X obj 101 151 SFR-granulator~;
#X obj 88 93 play~;
#X obj 121 54 bng 15 250 50 0 empty empty empty 17 7 0 10 -262144 -1
-1;
#X obj 68 43 bng 15 250 50 0 empty empty empty 17 7 0 10 -262144 -1
-1;
#X obj 172 459 dac~ 5 6;
#X connect 0 0 4 0;
#X connect 0 1 4 1;
#X connect 1 0 0 0;
#X connect 2 0 1 1;
#X connect 3 0 1 0;
