#N canvas 234 112 721 622 10;
#X obj 121 116 openpanel;
#X obj 121 201 soundfiler;
#N canvas 0 50 450 300 (subpatch) 0;
#X array source 8.24894e+06 float 0;
#X coords 0 1 8.24893e+06 -1 120 30 1;
#X restore 322 109 graph;
#X obj 105 322 f;
#X obj 105 450 line~;
#X msg 105 422 0 \, \$1 \$2;
#X obj 105 397 pack f f;
#X obj 105 348 t f f;
#X obj 102 293 bng 15 250 50 0 empty empty empty 17 7 0 10 -262144
-1 -1;
#X obj 151 376 / 44;
#X obj 123 82 bng 15 250 50 0 empty empty empty 17 7 0 10 -262144 -1
-1;
#X obj 38 42 inlet;
#X text 85 43 bang -> play;
#X obj 219 42 inlet;
#X text 267 41 bang -> open;
#X obj 112 543 outlet~;
#X text 496 46 simple sample player;
#X text 496 61 jmej 2017;
#X msg 121 179 read -resize -maxsize 1e+07 \$1 source;
#X obj 106 477 tabread4~ source;
#X msg 140 233 \; source resize \$1;
#X connect 0 0 18 0;
#X connect 1 0 20 0;
#X connect 1 0 3 1;
#X connect 3 0 7 0;
#X connect 4 0 19 0;
#X connect 5 0 4 0;
#X connect 6 0 5 0;
#X connect 7 0 6 0;
#X connect 7 1 9 0;
#X connect 8 0 3 0;
#X connect 9 0 6 1;
#X connect 10 0 0 0;
#X connect 11 0 8 0;
#X connect 13 0 10 0;
#X connect 18 0 1 0;
#X connect 19 0 15 0;
