#N canvas 121 28 1725 1072 10;
#X obj 125 503 dac~;
#X obj 143 413 *~;
#X obj 230 311 vsl 15 128 0 127 0 0 empty empty empty 0 -9 0 10 -262144
-1 -1 0 1;
#X obj 230 447 / 127;
#X obj 404 188 soundfiler;
#X obj 483 188 table array1;
#X msg 405 131 read -resize classical_cuts/atonal/07_Study_No_15.wav
array1;
#X obj 144 93 f;
#X obj 144 221 line~;
#X obj 144 253 tabread4~ array1;
#X msg 144 193 0 \, \$1 \$2;
#X obj 144 168 pack f f;
#X obj 144 119 t f f;
#X obj 141 64 bng 15 250 50 0 empty empty empty 17 7 0 10 -262144 -1
-1;
#X obj 386 561 osc~;
#X obj 885 179 sigmund~ -npeak 10 peaks;
#X obj 885 324 route 0 1 2 3 4 5 6 7 8 9;
#X obj 391 475 unpack 0 0 0 0;
#X obj 388 643 *~;
#X obj 386 697 *~;
#X obj 473 595 vsl 15 128 0 127 0 0 empty empty empty 0 -9 0 10 -262144
-1 -1 0 1;
#X obj 473 731 / 127;
#X obj 374 792 dac~;
#X obj 1092 73 tap_tempo;
#X obj 610 316 bng 15 250 50 0 empty empty empty 17 7 0 10 -262144
-1 -1;
#X obj 1065 131 metro;
#X obj 1071 91 tgl 15 0 empty empty empty 17 7 0 10 -262144 -1 -1 0
1;
#X obj 1067 165 bng 15 250 50 0 empty empty empty 17 7 0 10 -262144
-1 -1;
#X obj 343 254 env~;
#X obj 342 290 snapshot~;
#X floatatom 342 325 5 0 0 0 - - -, f 5;
#X obj 403 255 metro 10;
#X obj 375 217 tgl 15 0 empty empty empty 17 7 0 10 -262144 -1 -1 0
1;
#X msg 408 47 read -resize classical_cuts/percussion/drums.wav array1
;
#X msg 441 82 read -resize classical_cuts/speaking/adult-class-room.wav
array1;
#X obj 190 147 / 44;
#X floatatom 434 374 5 0 0 0 - - -, f 5;
#X obj 485 373 sel 1;
#X obj 829 286 spigot;
#X obj 849 252 tgl 15 0 empty empty empty 17 7 0 10 -262144 -1 -1 1
1;
#X obj 404 334 > 80;
#X obj 436 533 cyclone/mean;
#X floatatom 442 562 5 0 0 0 - - -, f 5;
#X obj 838 220 loadbang;
#X obj 386 537 line;
#X msg 386 511 \$1 1;
#X obj 389 753 *~;
#X obj 404 603 + 1;
#X obj 554 566 osc~;
#X obj 559 480 unpack 0 0 0 0;
#X obj 556 648 *~;
#X obj 554 702 *~;
#X obj 641 600 vsl 15 128 0 127 0 0 empty empty empty 0 -9 0 10 -262144
-1 -1 0 1;
#X obj 641 736 / 127;
#X obj 542 797 dac~;
#X obj 604 538 cyclone/mean;
#X floatatom 610 567 5 0 0 0 - - -, f 5;
#X obj 554 542 line;
#X msg 554 516 \$1 1;
#X obj 557 758 *~;
#X obj 572 608 + 1;
#X obj 706 567 osc~;
#X obj 711 481 unpack 0 0 0 0;
#X obj 708 649 *~;
#X obj 706 703 *~;
#X obj 793 601 vsl 15 128 0 127 0 0 empty empty empty 0 -9 0 10 -262144
-1 -1 0 1;
#X obj 793 737 / 127;
#X obj 694 798 dac~;
#X obj 756 539 cyclone/mean;
#X floatatom 762 568 5 0 0 0 - - -, f 5;
#X obj 706 543 line;
#X msg 706 517 \$1 1;
#X obj 709 759 *~;
#X obj 724 609 + 1;
#X obj 868 559 osc~;
#X obj 873 473 unpack 0 0 0 0;
#X obj 870 641 *~;
#X obj 868 695 *~;
#X obj 955 593 vsl 15 128 0 127 0 0 empty empty empty 0 -9 0 10 -262144
-1 -1 0 1;
#X obj 955 729 / 127;
#X obj 856 790 dac~;
#X obj 918 531 cyclone/mean;
#X floatatom 924 560 5 0 0 0 - - -, f 5;
#X obj 868 535 line;
#X msg 868 509 \$1 1;
#X obj 871 751 *~;
#X obj 886 601 + 1;
#X obj 1036 564 osc~;
#X obj 1041 478 unpack 0 0 0 0;
#X obj 1038 646 *~;
#X obj 1036 700 *~;
#X obj 1123 598 vsl 15 128 0 127 0 0 empty empty empty 0 -9 0 10 -262144
-1 -1 0 1;
#X obj 1123 734 / 127;
#X obj 1024 795 dac~;
#X obj 1086 536 cyclone/mean;
#X floatatom 1092 565 5 0 0 0 - - -, f 5;
#X obj 1036 540 line;
#X msg 1036 514 \$1 1;
#X obj 1039 756 *~;
#X obj 1054 606 + 1;
#X obj 1188 565 osc~;
#X obj 1193 479 unpack 0 0 0 0;
#X obj 1190 647 *~;
#X obj 1188 701 *~;
#X obj 1275 599 vsl 15 128 0 127 0 0 empty empty empty 0 -9 0 10 -262144
-1 -1 0 1;
#X obj 1275 735 / 127;
#X obj 1176 796 dac~;
#X obj 1238 537 cyclone/mean;
#X floatatom 1244 566 5 0 0 0 - - -, f 5;
#X obj 1188 541 line;
#X msg 1188 515 \$1 1;
#X obj 1191 757 *~;
#X obj 1206 607 + 1;
#X obj 581 940 osc~;
#X obj 586 854 unpack 0 0 0 0;
#X obj 583 1022 *~;
#X obj 581 1076 *~;
#X obj 668 974 vsl 15 128 0 127 0 0 empty empty empty 0 -9 0 10 -262144
-1 -1 0 1;
#X obj 668 1110 / 127;
#X obj 569 1171 dac~;
#X obj 631 912 cyclone/mean;
#X floatatom 637 941 5 0 0 0 - - -, f 5;
#X obj 581 916 line;
#X msg 581 890 \$1 1;
#X obj 584 1132 *~;
#X obj 599 982 + 1;
#X obj 743 932 osc~;
#X obj 748 846 unpack 0 0 0 0;
#X obj 745 1014 *~;
#X obj 743 1068 *~;
#X obj 830 966 vsl 15 128 0 127 0 0 empty empty empty 0 -9 0 10 -262144
-1 -1 0 1;
#X obj 830 1102 / 127;
#X obj 731 1163 dac~;
#X obj 793 904 cyclone/mean;
#X floatatom 799 933 5 0 0 0 - - -, f 5;
#X obj 743 908 line;
#X msg 743 882 \$1 1;
#X obj 746 1124 *~;
#X obj 761 974 + 1;
#X obj 911 937 osc~;
#X obj 916 851 unpack 0 0 0 0;
#X obj 913 1019 *~;
#X obj 911 1073 *~;
#X obj 998 971 vsl 15 128 0 127 0 0 empty empty empty 0 -9 0 10 -262144
-1 -1 0 1;
#X obj 998 1107 / 127;
#X obj 899 1168 dac~;
#X obj 961 909 cyclone/mean;
#X floatatom 967 938 5 0 0 0 - - -, f 5;
#X obj 911 913 line;
#X msg 911 887 \$1 1;
#X obj 914 1129 *~;
#X obj 929 979 + 1;
#X obj 1063 938 osc~;
#X obj 1068 852 unpack 0 0 0 0;
#X obj 1065 1020 *~;
#X obj 1063 1074 *~;
#X obj 1150 972 vsl 15 128 0 127 0 0 empty empty empty 0 -9 0 10 -262144
-1 -1 0 1;
#X obj 1150 1108 / 127;
#X obj 1051 1169 dac~;
#X obj 1113 910 cyclone/mean;
#X floatatom 1119 939 5 0 0 0 - - -, f 5;
#X obj 1063 914 line;
#X msg 1063 888 \$1 1;
#X obj 1066 1130 *~;
#X obj 1081 980 + 1;
#X connect 1 0 0 0;
#X connect 1 0 0 1;
#X connect 2 0 3 0;
#X connect 3 0 1 1;
#X connect 4 0 7 1;
#X connect 6 0 4 0;
#X connect 7 0 12 0;
#X connect 8 0 9 0;
#X connect 9 0 1 0;
#X connect 9 0 15 0;
#X connect 9 0 28 0;
#X connect 10 0 8 0;
#X connect 11 0 10 0;
#X connect 12 0 11 0;
#X connect 12 1 35 0;
#X connect 13 0 7 0;
#X connect 14 0 18 0;
#X connect 15 0 38 0;
#X connect 16 0 17 0;
#X connect 16 1 49 0;
#X connect 16 2 62 0;
#X connect 16 3 75 0;
#X connect 16 4 88 0;
#X connect 16 5 101 0;
#X connect 16 6 114 0;
#X connect 16 7 127 0;
#X connect 16 8 140 0;
#X connect 16 9 153 0;
#X connect 17 0 45 0;
#X connect 17 1 41 0;
#X connect 17 2 47 0;
#X connect 18 0 19 0;
#X connect 19 0 46 0;
#X connect 20 0 21 0;
#X connect 21 0 46 1;
#X connect 23 0 25 1;
#X connect 25 0 27 0;
#X connect 26 0 25 0;
#X connect 28 0 29 0;
#X connect 29 0 30 0;
#X connect 29 0 40 0;
#X connect 31 0 29 0;
#X connect 32 0 31 0;
#X connect 33 0 4 0;
#X connect 34 0 4 0;
#X connect 35 0 11 1;
#X connect 37 0 24 0;
#X connect 38 0 16 0;
#X connect 39 0 38 1;
#X connect 40 0 36 0;
#X connect 40 0 37 0;
#X connect 41 0 42 0;
#X connect 41 0 19 1;
#X connect 43 0 39 0;
#X connect 44 0 14 0;
#X connect 45 0 44 0;
#X connect 46 0 22 0;
#X connect 46 0 22 1;
#X connect 47 0 18 1;
#X connect 48 0 50 0;
#X connect 49 0 58 0;
#X connect 49 1 55 0;
#X connect 49 2 60 0;
#X connect 50 0 51 0;
#X connect 51 0 59 0;
#X connect 52 0 53 0;
#X connect 53 0 59 1;
#X connect 55 0 56 0;
#X connect 55 0 51 1;
#X connect 57 0 48 0;
#X connect 58 0 57 0;
#X connect 59 0 54 0;
#X connect 59 0 54 1;
#X connect 60 0 50 1;
#X connect 61 0 63 0;
#X connect 62 0 71 0;
#X connect 62 1 68 0;
#X connect 62 2 73 0;
#X connect 63 0 64 0;
#X connect 64 0 72 0;
#X connect 65 0 66 0;
#X connect 66 0 72 1;
#X connect 68 0 69 0;
#X connect 68 0 64 1;
#X connect 70 0 61 0;
#X connect 71 0 70 0;
#X connect 72 0 67 0;
#X connect 72 0 67 1;
#X connect 73 0 63 1;
#X connect 74 0 76 0;
#X connect 75 0 84 0;
#X connect 75 1 81 0;
#X connect 75 2 86 0;
#X connect 76 0 77 0;
#X connect 77 0 85 0;
#X connect 78 0 79 0;
#X connect 79 0 85 1;
#X connect 81 0 82 0;
#X connect 81 0 77 1;
#X connect 83 0 74 0;
#X connect 84 0 83 0;
#X connect 85 0 80 0;
#X connect 85 0 80 1;
#X connect 86 0 76 1;
#X connect 87 0 89 0;
#X connect 88 0 97 0;
#X connect 88 1 94 0;
#X connect 88 2 99 0;
#X connect 89 0 90 0;
#X connect 90 0 98 0;
#X connect 91 0 92 0;
#X connect 92 0 98 1;
#X connect 94 0 95 0;
#X connect 94 0 90 1;
#X connect 96 0 87 0;
#X connect 97 0 96 0;
#X connect 98 0 93 0;
#X connect 98 0 93 1;
#X connect 99 0 89 1;
#X connect 100 0 102 0;
#X connect 101 0 110 0;
#X connect 101 1 107 0;
#X connect 101 2 112 0;
#X connect 102 0 103 0;
#X connect 103 0 111 0;
#X connect 104 0 105 0;
#X connect 105 0 111 1;
#X connect 107 0 108 0;
#X connect 107 0 103 1;
#X connect 109 0 100 0;
#X connect 110 0 109 0;
#X connect 111 0 106 0;
#X connect 111 0 106 1;
#X connect 112 0 102 1;
#X connect 113 0 115 0;
#X connect 114 0 123 0;
#X connect 114 1 120 0;
#X connect 114 2 125 0;
#X connect 115 0 116 0;
#X connect 116 0 124 0;
#X connect 117 0 118 0;
#X connect 118 0 124 1;
#X connect 120 0 121 0;
#X connect 120 0 116 1;
#X connect 122 0 113 0;
#X connect 123 0 122 0;
#X connect 124 0 119 0;
#X connect 124 0 119 1;
#X connect 125 0 115 1;
#X connect 126 0 128 0;
#X connect 127 0 136 0;
#X connect 127 1 133 0;
#X connect 127 2 138 0;
#X connect 128 0 129 0;
#X connect 129 0 137 0;
#X connect 130 0 131 0;
#X connect 131 0 137 1;
#X connect 133 0 134 0;
#X connect 133 0 129 1;
#X connect 135 0 126 0;
#X connect 136 0 135 0;
#X connect 137 0 132 0;
#X connect 137 0 132 1;
#X connect 138 0 128 1;
#X connect 139 0 141 0;
#X connect 140 0 149 0;
#X connect 140 1 146 0;
#X connect 140 2 151 0;
#X connect 141 0 142 0;
#X connect 142 0 150 0;
#X connect 143 0 144 0;
#X connect 144 0 150 1;
#X connect 146 0 147 0;
#X connect 146 0 142 1;
#X connect 148 0 139 0;
#X connect 149 0 148 0;
#X connect 150 0 145 0;
#X connect 150 0 145 1;
#X connect 151 0 141 1;
#X connect 152 0 154 0;
#X connect 153 0 162 0;
#X connect 153 1 159 0;
#X connect 153 2 164 0;
#X connect 154 0 155 0;
#X connect 155 0 163 0;
#X connect 156 0 157 0;
#X connect 157 0 163 1;
#X connect 159 0 160 0;
#X connect 159 0 155 1;
#X connect 161 0 152 0;
#X connect 162 0 161 0;
#X connect 163 0 158 0;
#X connect 163 0 158 1;
#X connect 164 0 154 1;
