#N canvas 173 23 1216 852 10;
#X obj 74 646 dac~;
#X obj 92 556 *~;
#X obj 10 359 vsl 15 128 0 127 0 0 empty empty empty 0 -9 0 10 -262144
-1 -1 12700 1;
#X obj 10 495 / 127;
#X obj 408 370 soundfiler;
#X obj 487 370 table array1;
#X obj 144 93 f;
#X obj 134 239 line~;
#X obj 134 271 tabread4~ array1;
#X msg 134 211 0 \, \$1 \$2;
#X obj 134 186 pack f f;
#X obj 144 119 t f f;
#X obj 234 49 bng 15 250 50 0 empty empty empty 17 7 0 10 -262144 -1
-1;
#X obj 390 743 osc~;
#X obj 889 361 sigmund~ -npeak 10 peaks;
#X obj 889 506 route 0 1 2 3 4 5 6 7 8 9;
#X obj 395 657 unpack 0 0 0 0;
#X obj 392 825 *~;
#X obj 390 879 *~;
#X obj 477 777 vsl 15 128 0 127 0 0 empty empty empty 0 -9 0 10 -262144
-1 -1 0 1;
#X obj 477 913 / 127;
#X obj 378 974 dac~;
#X obj 1092 73 tap_tempo;
#X obj 614 498 bng 15 250 50 0 empty empty empty 17 7 0 10 -262144
-1 -1;
#X obj 1065 131 metro;
#X obj 1071 91 tgl 15 0 empty empty empty 17 7 0 10 -262144 -1 -1 0
1;
#X obj 1067 165 bng 15 250 50 0 empty empty empty 17 7 0 10 -262144
-1 -1;
#X obj 347 436 env~;
#X obj 346 472 snapshot~;
#X floatatom 344 506 5 0 0 0 - - -, f 5;
#X obj 407 437 metro 10;
#X obj 379 399 tgl 15 0 empty empty empty 17 7 0 10 -262144 -1 -1 0
1;
#X obj 190 147 / 44;
#X floatatom 438 556 5 0 0 0 - - -, f 5;
#X obj 489 555 sel 1;
#X obj 833 468 spigot;
#X obj 853 434 tgl 15 0 empty empty empty 17 7 0 10 -262144 -1 -1 1
1;
#X obj 440 715 cyclone/mean;
#X floatatom 446 744 5 0 0 0 - - -, f 5;
#X obj 842 402 loadbang;
#X obj 390 719 line;
#X obj 393 935 *~;
#X obj 408 785 + 1;
#X floatatom 719 502 5 0 0 0 - - -, f 5;
#X msg 390 693 \$1 1;
#X obj 192 552 ftom;
#X text 107 572 shift to the nearest semitone here;
#X obj 408 516 > 60;
#X text 405 467 try to make adaptive threshold for transient detection
;
#X obj 637 425 bonk~;
#X text 419 482 maybe bonk will work better;
#X text 506 529 record rhythmic pattern over those 5 seconds \, loop
as a rhythm for the micro comp;
#X obj 181 675 mode, f 7;
#X obj 199 600 int;
#X floatatom 125 624 5 0 0 0 - - -, f 5;
#X floatatom 128 659 5 0 0 0 - - -, f 5;
#X obj 185 719 unpack f f f;
#X obj 205 643 bng 15 250 50 0 empty empty empty 17 7 0 10 -262144
-1 -1;
#X obj 263 700 bng 15 250 50 0 empty empty empty 17 7 0 10 -262144
-1 -1;
#X floatatom 125 701 5 0 0 0 - - -, f 5;
#X text 354 808 anaylsis time length;
#X obj 185 756 ethan_tones;
#X msg 434 61 read -resize sounds/speaking/adult-class-room.wav array1
;
#X msg 97 55 0;
#X obj 291 652 vsl 15 128 0 127 0 0 empty empty empty 0 -9 0 10 -262144
-1 -1 0 1;
#X obj 290 795 / 127;
#X obj 205 818 dac~;
#X obj 206 788 *~;
#X obj 288 467 line;
#X msg 288 440 127 5000;
#X msg 211 409 0 1000;
#X obj 294 46 delay 5000;
#X obj 254 591 tgl 15 0 empty empty empty 17 7 0 10 -262144 -1 -1 1
1;
#X msg 226 523 0;
#X msg 260 516 1;
#X text 92 34 Stop;
#X text 229 30 Start;
#X text 195 702 clear mode;
#X obj 63 375 delwrite~ delay 5000;
#X obj 116 461 delread~ delay 5000;
#X obj 603 735 ethan_tones;
#X obj 709 631 vsl 15 128 0 127 0 0 empty empty empty 0 -9 0 10 -262144
-1 -1 0 1;
#X obj 708 774 / 127;
#X obj 623 797 dac~;
#X obj 624 767 *~;
#X obj 795 730 ethan_tones;
#X obj 901 626 vsl 15 128 0 127 0 0 empty empty empty 0 -9 0 10 -262144
-1 -1 0 1;
#X obj 900 769 / 127;
#X obj 815 792 dac~;
#X obj 816 762 *~;
#X floatatom 125 738 5 0 0 0 - - -, f 5;
#X floatatom 217 740 5 0 0 0 - - -, f 5;
#X floatatom 257 741 5 0 0 0 - - -, f 5;
#X obj 255 626 metro 5000;
#X obj 606 670 mtof;
#X obj 606 701 osc~;
#X msg 470 171 read -resize sounds/mike/02StMarkL.wav array1;
#X msg 479 192 read -resize sounds/mike/03StMarkL.wav array1;
#X msg 489 212 read -resize sounds/mike/04TrackL.wav array1;
#X msg 497 233 read -resize sounds/mike/05TrackL.wav array1;
#X msg 505 253 read -resize sounds/mike/06TrackL.wav array1;
#X msg 514 274 read -resize sounds/mike/09TrackL.wav array1;
#X msg 411 14 read -resize sounds/tonal/aria.wav array1, f 69;
#X msg 463 145;
#X msg 424 39 read -resize sounds/tonal/cello_suite.wav array1;
#X msg 443 82 read -resize sounds/percussion/02_Clapping Music.wav
array1;
#X msg 450 103 read -resize sounds/atonal/StudyNo15.wav array1;
#X msg 457 125 read -resize sounds/atonal/TripleQuartet.wav array1
;
#X text 773 234 applause;
#X text 780 253 Tuning;
#X text 756 170 solo vox;
#X text 759 191 choir;
#X text 788 275 orchestral;
#X text 766 212 orchestral;
#X connect 1 0 0 0;
#X connect 1 0 0 1;
#X connect 2 0 3 0;
#X connect 3 0 1 1;
#X connect 4 0 6 1;
#X connect 6 0 11 0;
#X connect 7 0 8 0;
#X connect 8 0 14 0;
#X connect 8 0 27 0;
#X connect 8 0 49 0;
#X connect 8 0 78 0;
#X connect 9 0 7 0;
#X connect 10 0 9 0;
#X connect 11 0 10 0;
#X connect 11 1 32 0;
#X connect 12 0 71 0;
#X connect 12 0 74 0;
#X connect 12 0 6 0;
#X connect 13 0 17 0;
#X connect 14 0 35 0;
#X connect 15 0 16 0;
#X connect 15 0 43 0;
#X connect 16 0 44 0;
#X connect 16 0 45 0;
#X connect 16 1 37 0;
#X connect 16 2 42 0;
#X connect 17 0 18 0;
#X connect 18 0 41 0;
#X connect 19 0 20 0;
#X connect 20 0 41 1;
#X connect 22 0 24 1;
#X connect 24 0 26 0;
#X connect 25 0 24 0;
#X connect 27 0 28 0;
#X connect 28 0 29 0;
#X connect 28 0 47 0;
#X connect 30 0 28 0;
#X connect 31 0 30 0;
#X connect 32 0 10 1;
#X connect 34 0 23 0;
#X connect 35 0 15 0;
#X connect 36 0 35 1;
#X connect 37 0 38 0;
#X connect 37 0 18 1;
#X connect 39 0 36 0;
#X connect 40 0 13 0;
#X connect 41 0 21 0;
#X connect 41 0 21 1;
#X connect 42 0 17 1;
#X connect 44 0 40 0;
#X connect 45 0 53 0;
#X connect 45 0 54 0;
#X connect 47 0 33 0;
#X connect 47 0 34 0;
#X connect 52 0 56 0;
#X connect 53 0 52 0;
#X connect 53 0 55 0;
#X connect 56 0 61 0;
#X connect 56 0 90 0;
#X connect 56 1 80 0;
#X connect 56 1 91 0;
#X connect 56 1 94 0;
#X connect 56 2 85 0;
#X connect 56 2 92 0;
#X connect 57 0 52 1;
#X connect 58 0 52 2;
#X connect 61 0 67 0;
#X connect 62 0 4 0;
#X connect 63 0 7 0;
#X connect 63 0 70 0;
#X connect 64 0 65 0;
#X connect 65 0 67 1;
#X connect 67 0 66 1;
#X connect 67 0 66 0;
#X connect 68 0 64 0;
#X connect 69 0 68 0;
#X connect 70 0 68 0;
#X connect 71 0 69 0;
#X connect 72 0 93 0;
#X connect 73 0 72 0;
#X connect 74 0 72 0;
#X connect 79 0 1 0;
#X connect 80 0 84 0;
#X connect 81 0 82 0;
#X connect 82 0 84 1;
#X connect 85 0 89 0;
#X connect 86 0 87 0;
#X connect 87 0 89 1;
#X connect 93 0 57 0;
#X connect 94 0 95 0;
#X connect 96 0 4 0;
#X connect 97 0 4 0;
#X connect 98 0 4 0;
#X connect 99 0 4 0;
#X connect 100 0 4 0;
#X connect 101 0 4 0;
#X connect 102 0 4 0;
#X connect 103 0 4 0;
#X connect 104 0 4 0;
#X connect 105 0 4 0;
#X connect 106 0 4 0;
#X connect 107 0 4 0;
