#N canvas 607 113 1074 900 10;
#X obj 4 72 loadbang;
#X obj 36 189 bng 15 250 50 0 empty empty empty 17 7 0 10 -262144 -1
-1;
#X obj 36 156 route 0;
#X text 156 99 set trigger threshold;
#X text 81 117 sound must exceed the second number;
#X text 66 132 and then fall to the first number to trigger;
#X text 55 191 indicates a trigger;
#X obj 36 446 f;
#X obj 74 445 + 1;
#X obj 36 330 spigot;
#X obj 36 303 bng 15 250 50 0 empty empty empty 17 7 0 10 -262144 -1
-1;
#X msg 106 301 1;
#X obj 36 360 t b b b;
#X msg 75 300 0;
#X obj 36 399 bng 15 250 50 0 empty empty empty 17 7 0 10 -262144 -1
-1;
#X obj 126 386 delay 10000;
#X text 86 421 scores 3 triggers with 10 seconds between them;
#X msg 129 559 1;
#X obj 129 632 f;
#X obj 179 632 + 1;
#X msg 227 588 1;
#X text 206 661 if 30 seconds pass with no trigger send ramp down to
zones;
#X floatatom 125 455 5 0 0 0 - - -, f 5;
#X floatatom 236 689 5 0 0 0 - - -, f 5;
#X msg 116 509 0;
#X obj 129 717 t b b b;
#X msg 169 561 0;
#X obj 129 589 metro 1000;
#X obj 129 660 > 30;
#X obj 129 691 sel 1;
#X obj 103 214 loadbang;
#X text 168 332 sound detection scoring system;
#X text 912 44 parallel.studio;
#X text 910 27 anestheticaudio.com;
#X text 82 478 after 2 points we send a msg to line;
#X msg 36 529 1;
#X text 910 12 Jesse Mejia 2017;
#X msg 129 744 0;
#X text 69 529 sound was established;
#X obj 38 802 outlet;
#X text 173 745 sound has ceased;
#X text 433 3 detects the presence or lack of sound based on a simple
scoring system \, sends triggers (0 and 1) accordingly;
#X obj 38 768 change;
#X obj 414 80 env~;
#X floatatom 414 107 5 0 0 0 - - -, f 5;
#X obj 4 130 bonk~;
#X msg 32 98 thresh 1 1.5;
#X obj 69 17 adc~ 4;
#X obj 471 210 dbtorms;
#X obj 71 42 *~ 5;
#X obj 36 476 sel 2;
#X text 127 34 gain factor of 5 seemed ok for no false positives \,
required loud talking to trigger;
#X msg 145 12 0;
#X msg 190 12 5;
#X obj 148 -17 sel 1 0;
#X obj 148 -43 inlet;
#X text 190 -41 1 to override live mics \, 0 to re-enable;
#X connect 0 0 46 0;
#X connect 1 0 10 0;
#X connect 2 0 1 0;
#X connect 7 0 8 0;
#X connect 7 0 22 0;
#X connect 7 0 50 0;
#X connect 8 0 7 1;
#X connect 9 0 12 0;
#X connect 10 0 9 0;
#X connect 10 0 20 0;
#X connect 11 0 9 1;
#X connect 12 0 14 0;
#X connect 12 1 15 0;
#X connect 12 2 13 0;
#X connect 13 0 9 1;
#X connect 14 0 7 0;
#X connect 15 0 11 0;
#X connect 17 0 27 0;
#X connect 18 0 23 0;
#X connect 18 0 19 0;
#X connect 18 0 28 0;
#X connect 19 0 18 1;
#X connect 20 0 18 1;
#X connect 24 0 7 1;
#X connect 25 0 37 0;
#X connect 25 1 20 0;
#X connect 25 2 26 0;
#X connect 26 0 27 0;
#X connect 27 0 18 0;
#X connect 28 0 29 0;
#X connect 29 0 25 0;
#X connect 30 0 11 0;
#X connect 35 0 42 0;
#X connect 37 0 42 0;
#X connect 42 0 39 0;
#X connect 43 0 44 0;
#X connect 45 1 2 0;
#X connect 46 0 45 0;
#X connect 47 0 49 0;
#X connect 49 0 43 0;
#X connect 49 0 45 0;
#X connect 50 0 35 0;
#X connect 50 0 17 0;
#X connect 50 0 24 0;
#X connect 52 0 49 1;
#X connect 53 0 49 1;
#X connect 54 0 52 0;
#X connect 54 1 53 0;
#X connect 55 0 54 0;
