#N canvas 198 -947 1067 900 10;
#X floatatom 165 465 5 0 0 0 - - -, f 5;
#X symbolatom 200 566 10 0 0 0 - - -, f 10;
#X floatatom 409 453 5 0 0 0 - - -, f 5;
#X symbolatom 448 554 10 0 0 0 - - -, f 10;
#X floatatom 646 451 5 0 0 0 - - -, f 5;
#X symbolatom 688 553 10 0 0 0 - - -, f 10;
#X obj 197 151 f;
#X floatatom 143 195 5 0 0 0 - - -, f 5;
#X obj 249 151 + 1;
#X obj 197 194 % 3;
#X floatatom 163 239 5 0 0 0 - - -, f 5;
#X obj 218 256 select 0 1 2;
#X obj 123 30 inlet;
#X obj 196 321 f;
#X obj 249 320 f;
#X obj 296 321 f;
#X obj 188 520 midinote;
#X obj 212 360 bng 15 250 50 0 empty empty empty 17 7 0 10 -262144
-1 -1;
#X obj 256 361 bng 15 250 50 0 empty empty empty 17 7 0 10 -262144
-1 -1;
#X obj 301 356 bng 15 250 50 0 empty empty empty 17 7 0 10 -262144
-1 -1;
#X obj 176 97 t b f;
#X obj 435 505 midinote;
#X obj 684 518 midinote;
#X obj 369 659 outlet~;
#X connect 0 0 16 0;
#X connect 2 0 21 0;
#X connect 4 0 22 0;
#X connect 6 0 7 0;
#X connect 6 0 8 0;
#X connect 6 0 9 0;
#X connect 8 0 6 1;
#X connect 9 0 11 0;
#X connect 9 0 10 0;
#X connect 11 0 13 0;
#X connect 11 1 14 0;
#X connect 11 2 15 0;
#X connect 12 0 20 0;
#X connect 13 0 0 0;
#X connect 13 0 17 0;
#X connect 14 0 2 0;
#X connect 14 0 18 0;
#X connect 15 0 4 0;
#X connect 15 0 19 0;
#X connect 16 0 1 0;
#X connect 16 1 23 0;
#X connect 20 0 6 0;
#X connect 20 1 13 1;
#X connect 20 1 14 1;
#X connect 20 1 15 1;
#X connect 21 0 3 0;
#X connect 21 1 23 0;
#X connect 22 0 5 0;
#X connect 22 1 23 0;
