#N canvas 109 185 721 622 10;
#X obj 221 122 openpanel;
#X obj 221 207 soundfiler;
#N canvas 0 50 450 300 (subpatch) 0;
#X array source 8.24894e+06 float 0;
#X coords 0 1 8.24893e+06 -1 120 30 1;
#X restore 422 115 graph;
#X obj 23 62 bng 15 250 50 0 empty empty empty 17 7 0 10 -262144 -1
-1;
#X obj 23 23 inlet;
#X text 71 22 bang -> open;
#X obj 26 531 outlet~;
#X text 596 67 jmej 2017;
#X msg 221 185 read -resize -maxsize 1e+07 \$1 source;
#X floatatom 221 233 5 0 0 0 - - -, f 5;
#X text 259 233 size of sound file;
#X text 496 183 load sound file;
#X obj 221 258 expr 44100 / $f1;
#X text 348 259 divide size by sample rate;
#X obj 221 292 phasor~;
#X obj 222 325 *~;
#X obj 25 492 tabread4~ source;
#X text 288 291 set phasor~ to sweep table at that rate;
#X text 256 324 set phasor~ amplitude equal to the size (end) of table
;
#X text 595 50 simple sample player;
#X obj 222 376 samphold~;
#X floatatom 26 271 5 0 0 0 - - -, f 5;
#X text 9 247 adjustable playback speed;
#X obj 26 297 phasor~;
#X obj 25 430 +~;
#X obj 26 365 *~ 256;
#X obj 200 22 inlet;
#X text 248 21 speed;
#X connect 0 0 8 0;
#X connect 1 0 9 0;
#X connect 3 0 0 0;
#X connect 4 0 3 0;
#X connect 8 0 1 0;
#X connect 9 0 12 0;
#X connect 9 0 15 1;
#X connect 12 0 14 0;
#X connect 14 0 15 0;
#X connect 15 0 20 0;
#X connect 16 0 6 0;
#X connect 20 0 24 1;
#X connect 21 0 23 0;
#X connect 23 0 20 1;
#X connect 23 0 25 0;
#X connect 24 0 16 0;
#X connect 25 0 24 0;
#X connect 26 0 21 0;
