#N canvas 885 162 1030 481 10;
#X obj 29 323 line;
#X obj 104 187 bng 15 250 50 0 empty empty empty 17 7 0 10 -262144
-1 -1;
#X text 12 8 args: slowest_lfo_time \, slow_pause \, fastest_lfo_time
\, fast_pause \, interp_time, f 83;
#X obj 61 123 * 0.5;
#X obj 116 224 f;
#X msg 114 256 127 \$1;
#X obj 577 94 metro;
#X obj 649 72 f \$5;
#X obj 578 5 loadbang;
#X obj 343 302 pack f f;
#X obj 344 364 line \$1;
#X msg 343 332 \$1 \$2;
#X obj 343 270 f \$3;
#X obj 396 270 f \$5;
#X obj 343 238 t b b;
#X obj 479 313 pack f f;
#X msg 479 343 \$1 \$2;
#X obj 532 281 f \$5;
#X obj 479 249 t b b;
#X text 311 286 ramp to fastest time;
#X text 491 298 ramp to slowest time;
#X obj 479 281 f \$1;
#X obj 577 118 f;
#X obj 613 118 + 1;
#X obj 577 143 mod 2;
#X obj 577 166 sel 0 1;
#X obj 688 320 pack f f;
#X msg 688 350 \$1 \$2;
#X obj 741 288 f \$5;
#X obj 688 256 t b b;
#X obj 824 331 pack f f;
#X msg 824 361 \$1 \$2;
#X obj 877 299 f \$5;
#X obj 824 267 t b b;
#X text 656 304 ramp to fastest pause;
#X text 836 316 ramp to slow pause;
#X obj 688 288 f \$4;
#X obj 824 299 f \$2;
#X obj 688 412 s \$0-lfo_pause;
#X obj 343 395 s \$0-lfo_speed;
#X obj 61 78 r \$0-lfo_speed;
#X obj 198 78 r \$0-lfo_pause;
#X obj 173 128 +, f 4;
#X obj 103 162 metro;
#X obj 29 210 delay;
#X obj 577 69 tgl 15 0 empty empty empty 17 7 0 10 -262144 -1 -1 1
1;
#X obj 29 359 outlet;
#X msg 29 269 0 \$1;
#X obj 29 241 f;
#X floatatom 291 400 5 0 0 0 - - -, f 5;
#X floatatom 633 414 5 0 0 0 - - -, f 5;
#X obj 103 137 tgl 15 0 empty empty empty 17 7 0 10 -262144 -1 -1 1
1;
#X obj 578 43 t b b b;
#X obj 688 385 line \$2;
#X connect 0 0 46 0;
#X connect 1 0 4 0;
#X connect 1 0 44 0;
#X connect 3 0 4 1;
#X connect 3 0 44 1;
#X connect 3 0 48 1;
#X connect 4 0 5 0;
#X connect 5 0 0 0;
#X connect 6 0 22 0;
#X connect 7 0 6 1;
#X connect 8 0 52 0;
#X connect 9 0 11 0;
#X connect 10 0 39 0;
#X connect 10 0 49 0;
#X connect 11 0 10 0;
#X connect 12 0 9 0;
#X connect 13 0 9 1;
#X connect 14 0 12 0;
#X connect 14 1 13 0;
#X connect 15 0 16 0;
#X connect 16 0 10 0;
#X connect 17 0 15 1;
#X connect 18 0 21 0;
#X connect 18 1 17 0;
#X connect 21 0 15 0;
#X connect 22 0 24 0;
#X connect 22 0 23 0;
#X connect 23 0 22 1;
#X connect 24 0 25 0;
#X connect 25 0 14 0;
#X connect 25 0 29 0;
#X connect 25 1 18 0;
#X connect 25 1 33 0;
#X connect 26 0 27 0;
#X connect 27 0 53 0;
#X connect 28 0 26 1;
#X connect 29 0 36 0;
#X connect 29 1 28 0;
#X connect 30 0 31 0;
#X connect 31 0 53 0;
#X connect 32 0 30 1;
#X connect 33 0 37 0;
#X connect 33 1 32 0;
#X connect 36 0 26 0;
#X connect 37 0 30 0;
#X connect 40 0 42 0;
#X connect 40 0 3 0;
#X connect 41 0 42 1;
#X connect 42 0 43 1;
#X connect 43 0 1 0;
#X connect 44 0 48 0;
#X connect 45 0 6 0;
#X connect 47 0 0 0;
#X connect 48 0 47 0;
#X connect 51 0 43 0;
#X connect 52 0 51 0;
#X connect 52 1 45 0;
#X connect 52 2 7 0;
#X connect 53 0 38 0;
#X connect 53 0 50 0;
