#N canvas 1030 413 587 300 10;
#X obj 123 107 limiter~ 50 1;
#X obj 80 150 z~ 64;
#X obj 158 150 z~ 64;
#X obj 81 181 *~;
#X obj 142 183 *~;
#X obj 89 10 inlet~;
#X obj 177 12 inlet~;
#X text 255 37 requires zexy;
#X text 256 59 Jesse Mejia / Parallel Studio;
#X obj 80 243 outlet~;
#X text 253 18 simple fixed stereo limiter;
#X obj 141 243 outlet~;
#X connect 0 0 3 1;
#X connect 0 0 4 0;
#X connect 1 0 3 0;
#X connect 2 0 4 1;
#X connect 3 0 9 0;
#X connect 4 0 11 0;
#X connect 5 0 0 0;
#X connect 5 0 1 0;
#X connect 6 0 0 1;
#X connect 6 0 2 0;
