#N canvas 1057 488 684 516 10;
#X obj 201 122 * 0.5;
#X obj 87 155 f;
#X floatatom 243 159 5 0 0 0 - - -, f 5;
#X floatatom 222 75 5 0 0 0 - - -, f 5;
#X obj 174 220 delay;
#X obj 87 381 line;
#X obj 87 421 outlet;
#X text 37 -27 generates triangle/ramps for gain~ with an inlet to
control time;
#X obj 174 253 f;
#X obj 182 -8 bng 15 250 50 0 empty empty empty 17 7 0 10 -262144 -1
-1;
#X obj 46 124 delay;
#X text 279 24 each period has a random time sepecified here;
#X text 240 51 and a minimum specified here;
#X obj 208 -8 loadbang;
#X obj 184 22 random \$1;
#X obj 184 50 + \$2;
#X obj 139 85 t b b f f;
#X text -22 217 Ethan changed this from 30;
#X text 195 315 Ethan changed this from 0;
#X msg 175 291 0 \$1;
#X msg 86 191 127 \$1;
#X connect 0 0 1 1;
#X connect 0 0 2 0;
#X connect 0 0 4 1;
#X connect 0 0 8 1;
#X connect 1 0 20 0;
#X connect 4 0 8 0;
#X connect 5 0 6 0;
#X connect 8 0 19 0;
#X connect 9 0 14 0;
#X connect 10 0 9 0;
#X connect 13 0 14 0;
#X connect 14 0 15 0;
#X connect 15 0 3 0;
#X connect 15 0 16 0;
#X connect 16 0 10 0;
#X connect 16 1 1 0;
#X connect 16 1 4 0;
#X connect 16 2 10 1;
#X connect 16 3 0 0;
#X connect 19 0 5 0;
#X connect 20 0 5 0;
