#N canvas 143 93 1838 986 10;
#X obj 37 177 hsl 750 15 0 2.57403e+06 0 0 pos pos empty -2 -8 0 10
-262130 -1 -1 0 1;
#X obj 37 194 hsl 750 15 0 2.57403e+06 0 0 empty endpos empty -2 -8
0 10 -262144 -1 -1 64 1;
#X obj 583 233 nbx 9 14 0 2.57403e+06 0 0 pos pos empty 0 -8 0 10 -262130
-1 -1 0 256;
#X obj 88 235 bng 25 250 50 0 once empty empty 17 7 0 10 -204786 -1
-1;
#X obj 129 235 tgl 25 0 loop empty empty 17 7 0 10 -261234 -1 -1 1
1;
#X text 0 177 drag;
#X text 124 219 loop;
#N canvas 5 53 450 300 update_end 0;
#X obj 113 55 r pos;
#X obj 171 36 r grainsize;
#X obj 237 93 samplerate~;
#X floatatom 250 117 5 0 0 0 - - -, f 5;
#X obj 237 138 / 1000;
#X text 289 117 s/ms;
#X obj 194 171 *;
#X obj 113 188 +;
#X floatatom 194 195 5 0 0 0 - - -, f 5;
#X floatatom 183 68 5 0 0 0 - - -, f 5;
#X obj 144 139 f;
#X obj 113 211 s endpos;
#X obj 171 92 t b f b;
#X connect 0 0 7 0;
#X connect 0 0 10 1;
#X connect 1 0 9 0;
#X connect 1 0 12 0;
#X connect 2 0 3 0;
#X connect 2 0 4 0;
#X connect 4 0 6 1;
#X connect 6 0 7 1;
#X connect 6 0 8 0;
#X connect 7 0 11 0;
#X connect 10 0 7 0;
#X connect 12 0 10 0;
#X connect 12 1 6 0;
#X connect 12 2 2 0;
#X restore 685 230 pd update_end;
#X text 84 219 once;
#X text 579 214 base position;
#X obj 246 1021 scope;
#X obj 47 234 bng 25 250 50 0 playscrub empty empty 17 7 0 10 -232576
-1 -1;
#X text 42 218 scrub;
#N canvas 144 537 450 300 playscrub 0;
#X obj 160 86 r samplect;
#X obj 139 117 f;
#X obj 167 224 line;
#X obj 169 249 s pos;
#X obj 101 53 r playscrub;
#X obj 140 153 t f b;
#X msg 175 182 0;
#X msg 100 192 \$1 4500;
#X connect 0 0 1 1;
#X connect 1 0 5 0;
#X connect 2 0 3 0;
#X connect 4 0 1 0;
#X connect 5 0 7 0;
#X connect 5 1 6 0;
#X connect 6 0 2 0;
#X connect 7 0 2 0;
#X restore 685 250 pd playscrub;
#X obj 895 254 s params;
#X obj 895 54 vsl 15 128 0 127 0 0 empty empty empty 0 -9 0 10 -262144
-1 -1 12700 1;
#X obj 895 196 / 127;
#X obj 981 62 vsl 15 128 0 127 0 0 empty empty empty 0 -9 0 10 -262144
-1 -1 0 1;
#X obj 981 256 s params;
#X msg 981 228 grainsize \$1;
#X obj 981 200 * 2;
#X obj 1242 296 s params;
#X obj 1242 96 vsl 15 128 0 127 0 0 empty empty empty 0 -9 0 10 -262144
-1 -1 10900 1;
#X text 1180 35 spread of position offsets;
#X obj 1080 61 vsl 15 128 0 127 0 0 empty empty empty 0 -9 0 10 -262144
-1 -1 1800 1;
#X obj 1081 255 s params;
#X obj 1581 339 bng 15 250 50 0 empty empty empty 17 7 0 10 -262144
-1 -1;
#X obj 1581 401 random;
#X obj 1625 343 r samplect;
#X obj 373 495 r params;
#X obj 1441 522 + 1;
#X obj 1408 468 tgl 15 0 empty empty empty 17 7 0 10 -262144 -1 -1
1 1;
#X obj 1408 521 f;
#X msg 1492 492 0;
#X text 1520 490 start over;
#X obj 1347 85 vsl 15 128 0 127 0 0 empty empty empty 0 -9 0 10 -262144
-1 -1 0 1;
#X obj 1347 277 s params;
#X floatatom 818 218 5 0 0 0 - - -, f 5;
#X floatatom 1037 199 5 0 0 0 - - -, f 5;
#X floatatom 1195 240 5 0 0 0 - - -, f 5;
#X floatatom 1298 214 5 0 0 0 - - -, f 5;
#X obj 1408 495 metro 1;
#X obj 1326 511 vsl 15 128 0 127 0 0 empty empty empty 0 -9 0 10 -262144
-1 -1 490 1;
#X floatatom 1326 656 5 0 0 0 - - -, f 5;
#X text 923 7 pitch of grain;
#X text 950 44 global grainsize;
#X text 1040 4 use this instead of global grainsize;
#X text 1352 35 jitter;
#X obj 170 221 loadbang;
#X text 281 176 scrub with yellow bar when playback isn't checked;
#X text 1367 449 playback / freeze;
#X obj 325 796 gain~;
#X obj 309 998 dac~ 1 2;
#X obj 559 801 gain~;
#X obj 545 996 dac~ 1 2;
#X obj 800 797 gain~;
#X obj 784 1002 dac~ 1 2;
#X obj 563 706 jon~;
#N canvas 41 121 474 324 presets 0;
#X msg 37 67 default;
#X msg 37 136 huge;
#X msg 37 159 huge_noexcursion;
#X msg 37 90 large;
#X msg 37 113 large_noexcursion;
#X msg 37 182 tadada;
#X msg 227 183 metallic;
#X msg 227 159 bubblebath;
#N canvas 15 98 678 492 preset_loader 0;
#X obj 40 26 inlet;
#X msg 43 122 \; param1 0 \; param2 22050 \; param3 22050 \; param4
0.5 \; param5 0.75 \; param6 0.625 \; param7 0.7 \; param8 0.5 \; param9
0.53761 \;;
#X msg 19 306 \; param1 0 \; param2 10000 \; param3 4637 \; param4
0.98 \; param5 0.685 \; param6 0.779 \; param7 0.74 \; param8 0.68
\; param9 0.53761 \;;
#X msg 199 123 \; param1 0 \; param2 10000 \; param3 4637 \; param4
0.98 \; param5 0.685 \; param6 0.779 \; param7 0.74 \; param8 0.68
\; param9 0 \;;
#X msg 181 303 \; param1 10 \; param2 10000 \; param3 4637 \; param4
0.99 \; param5 0.685 \; param6 0.779 \; param7 0.889 \; param8 0.84
\; param9 0.53761 \;;
#X msg 359 131 \; param1 10 \; param2 10000 \; param3 4637 \; param4
0.99 \; param5 0.685 \; param6 0.779 \; param7 0.889 \; param8 0.84
\; param9 0 \;;
#X msg 346 302 \; param1 216.535 \; param2 22050 \; param3 22050 \;
param4 0.677165 \; param5 0.850394 \; param6 0.92126 \; param7 0.80315
\; param8 0.818898 \; param9 0.11811 \;;
#X obj 39 70 route default large large_noexcursion huge huge_noexcursion
tadada;
#X connect 0 0 7 0;
#X connect 7 0 1 0;
#X connect 7 1 2 0;
#X connect 7 2 3 0;
#X connect 7 3 4 0;
#X connect 7 4 5 0;
#X connect 7 5 6 0;
#X restore 37 219 pd preset_loader;
#N canvas 15 98 678 492 preset_loader 0;
#X obj 40 26 inlet;
#X msg 39 203 \; param1 0 \; param2 22050 \; param3 22050 \; param4
0.653543 \; param5 0.629921 \; param6 0.409449 \; param7 0.889764 \;
param8 0.866142 \; param9 0 \;;
#X msg 209 204 \; param1 0 \; param2 2894.14 \; param3 22050 \; param4
0.92126 \; param5 0.897638 \; param6 0.299213 \; param7 0.984252 \;
param8 0.944882 \; param9 0.393701 \;;
#X obj 39 70 route metallic bubblebath;
#X connect 0 0 3 0;
#X connect 3 0 1 0;
#X connect 3 1 2 0;
#X restore 227 219 pd preset_loader;
#X connect 0 0 8 0;
#X connect 1 0 8 0;
#X connect 2 0 8 0;
#X connect 3 0 8 0;
#X connect 4 0 8 0;
#X connect 5 0 8 0;
#X connect 6 0 9 0;
#X connect 7 0 9 0;
#X restore 1501 822 pd presets;
#N canvas 640 356 915 371 params 0;
#X obj 25 92 hsl 128 15 220.5 22050 1 0 param3 param3 damping -2 -8
0 10 -262144 -1 -1 8400 0;
#X floatatom 157 91 10 0 0 0 - param3 damping, f 10;
#X obj 25 123 hsl 128 15 0 1 0 0 param4 param4 decay -2 -8 0 10 -262144
-1 -1 11700 0;
#X floatatom 157 122 10 0 0 0 - param4 decay, f 10;
#X obj 25 28 hsl 128 15 0 250 0 0 param1 param1 predelay -2 -8 0 10
-262144 -1 -1 508 0;
#X floatatom 157 27 10 0 0 0 - param1 predelay, f 10;
#X obj 25 60 hsl 128 15 220.5 22050 1 0 param2 param2 bandwidth -2
-8 0 10 -262144 -1 -1 2600 0;
#X floatatom 157 59 10 0 0 0 - param2 bandwidth, f 10;
#X obj 24 191 hsl 128 15 0 1 0 0 param6 param6 input_diffusion_2 -2
-8 0 10 -262144 -1 -1 9893 0;
#X floatatom 156 190 10 0 0 0 - param6 input_diffusion2, f 10;
#X obj 25 156 hsl 128 15 0 1 0 0 param5 param5 input_diffusion_1 -2
-8 0 10 -262144 -1 -1 8700 0;
#X floatatom 157 155 10 0 0 0 - param5 input_diffusion1, f 10;
#X obj 23 255 hsl 128 15 0 1 0 0 param8 param8 decay_diffusion_2 -2
-8 0 10 -262144 -1 -1 10400 0;
#X floatatom 155 254 10 0 0 0 - param8 decay_diffusion2, f 10;
#X obj 24 222 hsl 128 15 0 1 0 0 param7 param7 decay_diffusion_1 -2
-8 0 10 -262144 -1 -1 9800 0;
#X floatatom 156 221 10 0 0 0 - param7 decay_diffusion1, f 10;
#X obj 23 287 hsl 128 15 0 5 0 0 param9 param9 excursion -2 -8 0 10
-262144 -1 -1 1366 0;
#X floatatom 155 286 10 0 0 0 - param9 excursion, f 10;
#X obj 364 45 loadbang;
#X msg 376 96 \; param1 10 \; param2 566.054 \; param3 4637 \; param4
0.92126 \; param5 0.685 \; param6 0.779 \; param7 0.771654 \; param8
0.818898 \; param9 0.53761;
#X connect 18 0 19 0;
#X restore 1507 760 pd params;
#X text 1267 761 click to edit reverb parameters:;
#X text 1269 823 click to select reverb presets:;
#N canvas 66 50 387 608 receive_params 0;
#X msg 58 293 input_diffusion1 \$1;
#X msg 70 349 input_diffusion2 \$1;
#X msg 78 410 decay_diffusion1 \$1;
#X msg 87 469 decay_diffusion2 \$1;
#X msg 33 75 predelay \$1;
#X msg 33 132 bandwidth \$1;
#X msg 33 183 damping \$1;
#X msg 33 238 decay \$1;
#X msg 125 533 excursion \$1;
#X obj 33 547 outlet;
#X obj 33 48 r predelay;
#X obj 33 105 r bandwidth;
#X obj 33 159 r damping;
#X obj 33 213 r decay;
#X obj 58 268 r input_diffusion1;
#X obj 70 322 r input_diffusion2;
#X obj 78 383 r decay_diffusion1;
#X obj 87 442 r decay_diffusion2;
#X obj 125 503 r excursion;
#X connect 0 0 9 0;
#X connect 1 0 9 0;
#X connect 2 0 9 0;
#X connect 3 0 9 0;
#X connect 4 0 9 0;
#X connect 5 0 9 0;
#X connect 6 0 9 0;
#X connect 7 0 9 0;
#X connect 8 0 9 0;
#X connect 10 0 4 0;
#X connect 11 0 5 0;
#X connect 12 0 6 0;
#X connect 13 0 7 0;
#X connect 14 0 0 0;
#X connect 15 0 1 0;
#X connect 16 0 2 0;
#X connect 17 0 3 0;
#X connect 18 0 8 0;
#X restore 613 706 pd receive_params;
#X obj 801 711 jon~;
#N canvas 66 50 387 608 receive_params 0;
#X msg 58 293 input_diffusion1 \$1;
#X msg 70 349 input_diffusion2 \$1;
#X msg 78 410 decay_diffusion1 \$1;
#X msg 87 469 decay_diffusion2 \$1;
#X msg 33 75 predelay \$1;
#X msg 33 132 bandwidth \$1;
#X msg 33 183 damping \$1;
#X msg 33 238 decay \$1;
#X msg 125 533 excursion \$1;
#X obj 33 547 outlet;
#X obj 33 48 r predelay;
#X obj 33 105 r bandwidth;
#X obj 33 159 r damping;
#X obj 33 213 r decay;
#X obj 58 268 r input_diffusion1;
#X obj 70 322 r input_diffusion2;
#X obj 78 383 r decay_diffusion1;
#X obj 87 442 r decay_diffusion2;
#X obj 125 503 r excursion;
#X connect 0 0 9 0;
#X connect 1 0 9 0;
#X connect 2 0 9 0;
#X connect 3 0 9 0;
#X connect 4 0 9 0;
#X connect 5 0 9 0;
#X connect 6 0 9 0;
#X connect 7 0 9 0;
#X connect 8 0 9 0;
#X connect 10 0 4 0;
#X connect 11 0 5 0;
#X connect 12 0 6 0;
#X connect 13 0 7 0;
#X connect 14 0 0 0;
#X connect 15 0 1 0;
#X connect 16 0 2 0;
#X connect 17 0 3 0;
#X connect 18 0 8 0;
#X restore 852 708 pd receive_params;
#N canvas 0 50 462 311 dry 0;
#X obj 75 73 inlet;
#X obj 182 45 inlet;
#X obj 77 201 s dry;
#X obj 76 149 * 1;
#X obj 181 79 dbtorms;
#X obj 181 109 t b a;
#X connect 0 0 3 0;
#X connect 1 0 4 0;
#X connect 3 0 2 0;
#X connect 4 0 5 0;
#X connect 5 0 3 0;
#X connect 5 1 3 1;
#X restore 1450 1021 pd dry;
#X obj 1450 1000 tgl 15 1 empty empty empty 17 7 0 10 -262144 -1 -1
1 1;
#X obj 1333 1027 tgl 15 1 empty empty empty 17 7 0 10 -262144 -1 -1
1 1;
#N canvas 65 85 470 319 wet 0;
#X obj 75 73 inlet;
#X obj 162 43 inlet;
#X obj 76 149 * 1;
#X obj 161 80 dbtorms;
#X obj 77 201 s wet;
#X obj 162 111 t b a;
#X connect 0 0 2 0;
#X connect 1 0 3 0;
#X connect 2 0 4 0;
#X connect 3 0 5 0;
#X connect 5 0 2 0;
#X connect 5 1 2 1;
#X restore 1333 1047 pd wet;
#X obj 1482 1001 nbx 3 14 -1e+37 1e+37 0 1 empty empty empty 0 -8 0
10 -262144 -1 -1 0 256;
#X obj 1365 1027 nbx 3 14 -1e+37 1e+37 0 1 empty empty empty 0 -8 0
10 -262144 -1 -1 100 256;
#X obj 602 756 *~;
#X obj 627 755 r wet;
#X obj 534 756 *~;
#X obj 562 756 r dry;
#X obj 857 755 *~;
#X obj 882 754 r wet;
#X obj 789 755 *~;
#X obj 817 755 r dry;
#X text 1328 724 Global reverb controls;
#X obj 1482 863 vsl 15 128 0 100 0 0 empty empty empty 0 -9 0 10 -262144
-1 -1 0 1;
#X text 1504 938 dry;
#X obj 1377 851 vsl 15 128 0 100 0 0 empty empty empty 0 -9 0 10 -262144
-1 -1 12700 1;
#X text 1389 965 wet;
#X text 1452 377 this is the size of jump divisor - also chosen by
ear;
#X obj 1402 18 bng 15 250 50 0 empty empty empty 17 7 0 10 -262144
-1 -1;
#X obj 325 720 jon~;
#N canvas 64 80 387 608 receive_params 0;
#X msg 58 293 input_diffusion1 \$1;
#X msg 70 349 input_diffusion2 \$1;
#X msg 78 410 decay_diffusion1 \$1;
#X msg 87 469 decay_diffusion2 \$1;
#X msg 33 75 predelay \$1;
#X msg 33 132 bandwidth \$1;
#X msg 33 183 damping \$1;
#X msg 33 238 decay \$1;
#X msg 125 533 excursion \$1;
#X obj 33 547 outlet;
#X obj 33 48 r predelay;
#X obj 33 105 r bandwidth;
#X obj 33 159 r damping;
#X obj 33 213 r decay;
#X obj 58 268 r input_diffusion1;
#X obj 70 322 r input_diffusion2;
#X obj 78 383 r decay_diffusion1;
#X obj 87 442 r decay_diffusion2;
#X obj 125 503 r excursion;
#X connect 0 0 9 0;
#X connect 1 0 9 0;
#X connect 2 0 9 0;
#X connect 3 0 9 0;
#X connect 4 0 9 0;
#X connect 5 0 9 0;
#X connect 6 0 9 0;
#X connect 7 0 9 0;
#X connect 8 0 9 0;
#X connect 10 0 4 0;
#X connect 11 0 5 0;
#X connect 12 0 6 0;
#X connect 13 0 7 0;
#X connect 14 0 0 0;
#X connect 15 0 1 0;
#X connect 16 0 2 0;
#X connect 17 0 3 0;
#X connect 18 0 8 0;
#X restore 366 718 pd receive_params;
#X obj 349 760 *~;
#X obj 375 740 r wet;
#X obj 281 760 *~;
#X obj 309 760 r dry;
#X obj 1243 239 * 50;
#X obj 277 699 *~ 2;
#X text 763 339 build a 8 seconds at a time sampler \, would play through
for about 56 seconds \, and start sampling again at 48 seconds;
#X text 836 392 normalize each 8 seconds;
#X msg 1237 62 109;
#X msg 1078 26 18;
#X msg 1349 56 0;
#X msg 895 226 all speed \$1;
#X msg 1081 227 all size-offset \$1;
#X msg 1242 268 all spread \$1;
#X msg 1347 247 all jitter \$1;
#N canvas 49 141 450 300 size_serializer 0;
#X msg 106 50 53 54 55 56 57 58 59 60 65 66 67 68;
#X obj 106 81 list-abs/list-drip;
#X obj 101 158 f;
#X obj 163 158 + 1;
#X msg 211 106 0;
#X obj 56 186 pack f f;
#X obj 106 111 t f b;
#X msg 56 208 \$2 grainsize \$1;
#X obj 56 240 s params;
#X obj 108 4 inlet;
#X connect 0 0 1 0;
#X connect 1 0 6 0;
#X connect 1 1 4 0;
#X connect 2 0 5 1;
#X connect 2 0 3 0;
#X connect 3 0 2 1;
#X connect 4 0 2 1;
#X connect 5 0 7 0;
#X connect 6 0 5 0;
#X connect 6 1 2 0;
#X connect 7 0 8 0;
#X connect 9 0 0 0;
#X restore 1427 48 pd size_serializer;
#X obj 561 494 r params;
#X obj 798 483 r params;
#X obj 1046 484 r params;
#X obj 1034 773 gain~;
#X obj 1034 991 dac~ 1 2;
#X obj 1051 700 jon~;
#N canvas 64 80 387 608 receive_params 0;
#X msg 58 293 input_diffusion1 \$1;
#X msg 70 349 input_diffusion2 \$1;
#X msg 78 410 decay_diffusion1 \$1;
#X msg 87 469 decay_diffusion2 \$1;
#X msg 33 75 predelay \$1;
#X msg 33 132 bandwidth \$1;
#X msg 33 183 damping \$1;
#X msg 33 238 decay \$1;
#X msg 125 533 excursion \$1;
#X obj 33 547 outlet;
#X obj 33 48 r predelay;
#X obj 33 105 r bandwidth;
#X obj 33 159 r damping;
#X obj 33 213 r decay;
#X obj 58 268 r input_diffusion1;
#X obj 70 322 r input_diffusion2;
#X obj 78 383 r decay_diffusion1;
#X obj 87 442 r decay_diffusion2;
#X obj 125 503 r excursion;
#X connect 0 0 9 0;
#X connect 1 0 9 0;
#X connect 2 0 9 0;
#X connect 3 0 9 0;
#X connect 4 0 9 0;
#X connect 5 0 9 0;
#X connect 6 0 9 0;
#X connect 7 0 9 0;
#X connect 8 0 9 0;
#X connect 10 0 4 0;
#X connect 11 0 5 0;
#X connect 12 0 6 0;
#X connect 13 0 7 0;
#X connect 14 0 0 0;
#X connect 15 0 1 0;
#X connect 16 0 2 0;
#X connect 17 0 3 0;
#X connect 18 0 8 0;
#X restore 1100 701 pd receive_params;
#X obj 1107 744 *~;
#X obj 1132 743 r wet;
#X obj 1039 744 *~;
#X obj 1067 744 r dry;
#X text 395 813 ch 1;
#X text 610 804 ch 2;
#X text 855 813 ch 3;
#X text 1109 795 ch 4;
#X text 1515 305 move to random position;
#X obj 1665 740 ramp_lfo;
#X msg 1665 715 60000;
#X obj 1665 692 loadbang;
#X obj 124 732 8_sec_buffers;
#X text 313 419 if this is the granular engine - we need two of them
- and they should read from each of the two 8 sec buffers at all tiems
(we can crossfade between the two);
#X obj 1039 424 loadbang;
#X obj 276 668 catch~ track1;
#X obj 562 664 catch~ track2;
#X obj 803 673 catch~ track3;
#X obj 1045 664 catch~ track4;
#X obj 1295 873 loadbang;
#X msg 1286 910 100;
#X msg 1428 891 0;
#N canvas 685 117 1043 753 track2 0;
#X obj 39 276 hsl 128 15 0 136 0 1 empty empty empty -2 -8 0 10 -262144
-1 -1 6537 1;
#X text 71 259 frequency;
#X obj 199 161 + 100;
#X obj 199 185 dbtorms;
#N canvas 0 50 450 300 (subpatch) 0;
#X array \$0-spectrum 512 float 0;
#X coords 0 1 512 0 400 140 1;
#X restore 638 424 graph;
#X msg 473 322 lowpass;
#X msg 473 342 highpass;
#X msg 473 362 bandpass;
#X msg 473 382 resonant;
#X msg 473 402 notch;
#X floatatom 199 214 5 0 0 0 - - -, f 5;
#X text 263 125 The gain of the resonance is equal to Q. By convention
\, -3dB means no resonance for lowpass and highpass.;
#X obj 199 132 nbx 5 14 -1e+37 1e+37 0 1 empty empty empty 0 -8 0 10
-262144 -1 -1 9 256;
#N canvas 0 50 450 300 (subpatch) 0;
#X array \$0-filter.response 400 float 0;
#X coords 0 1 399 -1 400 140 1;
#X restore 638 243 graph;
#X obj 250 568 tgl 15 0 empty empty empty 17 7 0 10 -262144 -1 -1 0
1;
#X text 269 567 plot phase response;
#X obj 207 673 spectrum.mmb~ \$0-spectrum;
#X msg 374 672 logfreq 1 \, dbrange -25 25;
#X obj 70 317 mtof;
#X floatatom 77 352 0 0 0 0 - - -;
#X obj 202 644 *~ 39;
#X obj 374 642 loadbang;
#X obj 152 487 filtercoeff.mmb lowpass;
#X obj 76 551 biquadm.mmb~;
#X obj 156 618 filterplot.mmb \$0-filter.response;
#X msg 250 587 phase \$1;
#X obj 184 448 t b f;
#X obj 241 448 t b f;
#X obj 289 448 t b a;
#X msg 473 532 lop;
#X msg 473 552 hip;
#X text 466 301 filter types:;
#X text 461 514 vanilla filters:;
#X obj 77 471 inlet~;
#X text 322 150 careful with this one;
#X text 236 211 Q - refers to resonance for lowpass \, highpass \,
and resonant. Refers to bandwidth for bandpass and notch;
#X text 156 24 note: settings don't save.. add message boxes to create
presets - for example:;
#X text 319 65 bandpass high-mids:;
#X obj 511 39 bng 15 250 50 0 empty empty empty 17 7 0 10 -262144 -1
-1;
#X floatatom 103 309 5 0 0 0 - - -, f 5;
#X obj 511 5 loadbang;
#X obj 41 704 throw~ track2;
#N canvas 887 153 900 430 lpf 0;
#X obj 153 279 bob~;
#X obj 184 222 mtof;
#X msg 276 238 0;
#X obj 276 264 sig~;
#X obj 183 246 sig~;
#X floatatom 356 350 5 0 0 0 - - -, f 5;
#X obj 352 143 vsl 15 128 0 127 0 0 empty empty empty 0 -9 0 10 -262144
-1 -1 2794 1;
#X obj 274 215 loadbang;
#X floatatom 353 311 5 0 0 0 - - -, f 5;
#X text 375 218 lowpass filter;
#X obj 412 143 loadbang;
#X text 392 348 cutoff freq;
#X text 231 118 moog style lowpass, f 9;
#X msg 417 170 87;
#X obj 153 322 outlet~;
#X obj 142 21 inlet~;
#X obj 517 272 lpf_ramp_lfo2 10000 5000;
#X connect 0 0 14 0;
#X connect 1 0 4 0;
#X connect 1 0 5 0;
#X connect 2 0 3 0;
#X connect 3 0 0 2;
#X connect 4 0 0 1;
#X connect 6 0 1 0;
#X connect 6 0 8 0;
#X connect 7 0 2 0;
#X connect 10 0 13 0;
#X connect 13 0 6 0;
#X connect 15 0 0 0;
#X connect 16 0 6 0;
#X restore 71 647 pd lpf;
#X msg 451 65 9;
#X msg 489 64 70;
#X connect 0 0 18 0;
#X connect 0 0 39 0;
#X connect 2 0 3 0;
#X connect 3 0 10 0;
#X connect 5 0 28 0;
#X connect 6 0 28 0;
#X connect 7 0 28 0;
#X connect 8 0 28 0;
#X connect 9 0 28 0;
#X connect 10 0 26 0;
#X connect 12 0 2 0;
#X connect 14 0 25 0;
#X connect 17 0 16 1;
#X connect 18 0 19 0;
#X connect 19 0 22 0;
#X connect 20 0 16 0;
#X connect 21 0 17 0;
#X connect 22 0 23 1;
#X connect 22 0 24 0;
#X connect 23 0 20 0;
#X connect 23 0 42 0;
#X connect 25 0 24 1;
#X connect 26 0 22 0;
#X connect 26 1 22 1;
#X connect 27 0 22 0;
#X connect 27 1 22 2;
#X connect 28 0 22 0;
#X connect 28 1 22 3;
#X connect 29 0 28 0;
#X connect 30 0 28 0;
#X connect 33 0 23 0;
#X connect 38 0 43 0;
#X connect 38 0 44 0;
#X connect 38 0 7 0;
#X connect 40 0 38 0;
#X connect 42 0 41 0;
#X connect 43 0 12 0;
#X connect 44 0 0 0;
#X restore 561 597 pd track2;
#N canvas 762 199 1043 753 track3 0;
#X obj 70 278 hsl 128 15 0 136 0 1 empty empty empty -2 -8 0 10 -262144
-1 -1 7751 1;
#X text 71 259 frequency;
#X obj 199 161 + 100;
#X obj 199 185 dbtorms;
#N canvas 0 50 450 300 (subpatch) 0;
#X array \$0-spectrum-2 512 float 0;
#X coords 0 1 512 0 400 140 1 0 0;
#X restore 638 424 graph;
#X msg 473 322 lowpass;
#X msg 473 342 highpass;
#X msg 473 362 bandpass;
#X msg 473 382 resonant;
#X msg 473 402 notch;
#X floatatom 199 214 5 0 0 0 - - -, f 5;
#X obj 199 132 nbx 5 14 -1e+37 1e+37 0 1 empty empty empty 0 -8 0 10
-262144 -1 -1 11 256;
#N canvas 0 50 450 300 (subpatch) 0;
#X array \$0-filter.response-2 400 float 0;
#X coords 0 1 399 -1 400 140 1 0 0;
#X restore 638 243 graph;
#X obj 250 568 tgl 15 0 empty empty empty 17 7 0 10 -262144 -1 -1 0
1;
#X text 269 567 plot phase response;
#X msg 311 696 logfreq 1 \, dbrange -25 25;
#X obj 70 317 mtof;
#X floatatom 77 352 0 0 0 0 - - -;
#X obj 128 668 *~ 39;
#X obj 311 666 loadbang;
#X obj 152 487 filtercoeff.mmb lowpass;
#X obj 76 551 biquadm.mmb~;
#X msg 250 587 phase \$1;
#X obj 184 448 t b f;
#X obj 289 448 t b a;
#X msg 473 532 lop;
#X msg 473 552 hip;
#X text 466 301 filter types:;
#X text 461 514 vanilla filters:;
#X obj 77 471 inlet~;
#X obj 157 618 filterplot.mmb \$0-filter.response-2;
#X obj 133 697 spectrum.mmb~ \$0-spectrum-2;
#X text 236 211 Q - refers to resonance for lowpass \, highpass \,
and resonant. Refers to bandwidth for bandpass and notch;
#X text 264 125 The gain of the resonance is equal to Q. By convention
\, -3dB means no resonance for lowpass and highpass. Careful!;
#X floatatom 110 316 5 0 0 0 - - -, f 5;
#X text 85 16 note: settings don't save.. add message boxes to create
presets - for example:;
#X obj 511 39 bng 15 250 50 0 empty empty empty 17 7 0 10 -262144 -1
-1;
#X obj 545 35 loadbang;
#X obj 43 698 throw~ track3;
#N canvas 1 264 900 430 lpf 0;
#X obj 153 279 bob~;
#X obj 184 222 mtof;
#X msg 276 238 0;
#X obj 276 264 sig~;
#X obj 183 246 sig~;
#X floatatom 356 350 5 0 0 0 - - -, f 5;
#X obj 352 143 vsl 15 128 0 127 0 0 empty empty empty 0 -9 0 10 -262144
-1 -1 10162 1;
#X obj 274 215 loadbang;
#X floatatom 353 311 5 0 0 0 - - -, f 5;
#X text 375 218 lowpass filter;
#X obj 412 143 loadbang;
#X text 392 348 cutoff freq;
#X text 231 118 moog style lowpass, f 9;
#X msg 417 170 87;
#X obj 167 318 outlet~;
#X obj 142 21 inlet~;
#X obj 520 274 lpf_ramp_lfo2 12000 10000;
#X connect 0 0 14 0;
#X connect 1 0 4 0;
#X connect 1 0 5 0;
#X connect 2 0 3 0;
#X connect 3 0 0 2;
#X connect 4 0 0 1;
#X connect 6 0 1 0;
#X connect 6 0 8 0;
#X connect 7 0 2 0;
#X connect 10 0 13 0;
#X connect 13 0 6 0;
#X connect 15 0 0 0;
#X connect 16 0 6 0;
#X restore 61 657 pd lpf;
#X msg 451 65 11;
#X msg 489 64 83;
#X connect 0 0 16 0;
#X connect 0 0 34 0;
#X connect 2 0 3 0;
#X connect 3 0 10 0;
#X connect 5 0 24 0;
#X connect 6 0 24 0;
#X connect 7 0 24 0;
#X connect 8 0 24 0;
#X connect 9 0 24 0;
#X connect 10 0 23 0;
#X connect 11 0 2 0;
#X connect 13 0 22 0;
#X connect 15 0 31 1;
#X connect 16 0 17 0;
#X connect 17 0 20 0;
#X connect 18 0 31 0;
#X connect 19 0 15 0;
#X connect 20 0 21 1;
#X connect 20 0 30 0;
#X connect 21 0 18 0;
#X connect 21 0 39 0;
#X connect 22 0 30 1;
#X connect 23 0 20 0;
#X connect 23 1 20 1;
#X connect 24 0 20 0;
#X connect 24 1 20 3;
#X connect 25 0 24 0;
#X connect 26 0 24 0;
#X connect 29 0 21 0;
#X connect 36 0 40 0;
#X connect 36 0 41 0;
#X connect 36 0 7 0;
#X connect 37 0 36 0;
#X connect 39 0 38 0;
#X connect 40 0 11 0;
#X connect 41 0 0 0;
#X restore 798 588 pd track3;
#N canvas 214 326 1043 753 track4 0;
#X obj 77 283 hsl 128 15 0 136 0 1 empty empty empty -2 -8 0 10 -262144
-1 -1 7377 1;
#X text 71 259 frequency;
#X obj 199 161 + 100;
#X obj 199 185 dbtorms;
#N canvas 0 50 450 300 (subpatch) 0;
#X array \$0-spectrum-3 512 float 0;
#X coords 0 1 512 0 400 140 1 0 0;
#X restore 638 424 graph;
#X msg 473 322 lowpass;
#X msg 473 342 highpass;
#X msg 473 362 bandpass;
#X msg 473 382 resonant;
#X msg 473 402 notch;
#X floatatom 199 214 5 0 0 0 - - -, f 5;
#X obj 199 132 nbx 5 14 -1e+37 1e+37 0 1 empty empty empty 0 -8 0 10
-262144 -1 -1 11 256;
#N canvas 0 50 450 300 (subpatch) 0;
#X array \$0-filter.response-3 400 float 0;
#X coords 0 1 399 -1 400 140 1 0 0;
#X restore 638 243 graph;
#X obj 250 568 tgl 15 0 empty empty empty 17 7 0 10 -262144 -1 -1 0
1;
#X text 269 567 plot phase response;
#X msg 311 696 logfreq 1 \, dbrange -25 25;
#X obj 70 317 mtof;
#X floatatom 77 352 0 0 0 0 - - -;
#X obj 128 668 *~ 39;
#X obj 311 666 loadbang;
#X obj 152 487 filtercoeff.mmb lowpass;
#X obj 76 551 biquadm.mmb~;
#X msg 250 587 phase \$1;
#X obj 184 448 t b f;
#X obj 289 448 t b a;
#X msg 473 532 lop;
#X msg 473 552 hip;
#X text 466 301 filter types:;
#X text 461 514 vanilla filters:;
#X obj 77 471 inlet~;
#X text 236 211 Q - refers to resonance for lowpass \, highpass \,
and resonant. Refers to bandwidth for bandpass and notch;
#X text 264 125 The gain of the resonance is equal to Q. By convention
\, -3dB means no resonance for lowpass and highpass. Careful!;
#X floatatom 110 316 5 0 0 0 - - -, f 5;
#X text 156 24 note: settings don't save.. add message boxes to create
presets - for example:;
#X text 319 65 bandpass high-mids:;
#X obj 511 39 bng 15 250 50 0 empty empty empty 17 7 0 10 -262144 -1
-1;
#X obj 545 35 loadbang;
#X obj 157 617 filterplot.mmb \$0-filter.response-3;
#X obj 133 697 spectrum.mmb~ \$0-spectrum-3;
#X obj 28 697 throw~ track4;
#N canvas 43 151 900 430 lpf 0;
#X obj 153 279 bob~;
#X obj 184 222 mtof;
#X msg 276 238 0;
#X obj 276 264 sig~;
#X obj 183 246 sig~;
#X floatatom 356 350 5 0 0 0 - - -, f 5;
#X obj 352 143 vsl 15 128 0 127 0 0 empty empty empty 0 -9 0 10 -262144
-1 -1 11683 1;
#X obj 274 215 loadbang;
#X floatatom 353 311 5 0 0 0 - - -, f 5;
#X text 375 218 lowpass filter;
#X obj 412 143 loadbang;
#X text 392 348 cutoff freq;
#X text 231 118 moog style lowpass, f 9;
#X msg 417 170 87;
#X obj 167 318 outlet~;
#X obj 142 21 inlet~;
#X obj 517 274 lpf_ramp_lfo2 10000 5000;
#X connect 0 0 14 0;
#X connect 1 0 4 0;
#X connect 1 0 5 0;
#X connect 2 0 3 0;
#X connect 3 0 0 2;
#X connect 4 0 0 1;
#X connect 6 0 1 0;
#X connect 6 0 8 0;
#X connect 7 0 2 0;
#X connect 10 0 13 0;
#X connect 13 0 6 0;
#X connect 15 0 0 0;
#X connect 16 0 6 0;
#X restore 39 636 pd lpf;
#X msg 451 65 11;
#X msg 489 64 79;
#X connect 0 0 16 0;
#X connect 0 0 32 0;
#X connect 2 0 3 0;
#X connect 3 0 10 0;
#X connect 5 0 24 0;
#X connect 6 0 24 0;
#X connect 7 0 24 0;
#X connect 8 0 24 0;
#X connect 9 0 24 0;
#X connect 10 0 23 0;
#X connect 11 0 2 0;
#X connect 13 0 22 0;
#X connect 15 0 38 1;
#X connect 16 0 17 0;
#X connect 17 0 20 0;
#X connect 18 0 38 0;
#X connect 19 0 15 0;
#X connect 20 0 21 1;
#X connect 20 0 37 0;
#X connect 21 0 18 0;
#X connect 21 0 40 0;
#X connect 22 0 37 1;
#X connect 23 0 20 0;
#X connect 23 1 20 1;
#X connect 24 0 20 0;
#X connect 24 1 20 3;
#X connect 25 0 24 0;
#X connect 26 0 24 0;
#X connect 29 0 21 0;
#X connect 35 0 41 0;
#X connect 35 0 42 0;
#X connect 35 0 7 0;
#X connect 36 0 35 0;
#X connect 40 0 39 0;
#X connect 41 0 11 0;
#X connect 42 0 0 0;
#X restore 1045 586 pd track4;
#X text 107 503 make beeping headphone alive signal;
#X text 30 464 also need audio sensing of 4 mics to dicate switches
between live and canned;
#X obj 481 1021 scope;
#X obj 730 1023 scope;
#X obj 969 1019 scope;
#X text 43 271 make a table loader that loads and plays back from (10?)
buffers. They probably should have consistent filenames - maybe write
a script that watches a shared SMB folder and renames accordingly?
- or if we run out of time client has follow naming convention. These
should alternate and crossfade and then be fed into the 8_sec_buffers
audio inlet when no sound is sensed in the room (for maybe 30 seconds
or so). there should be an 8 or so second moment of silence before
it starts. Periodically the tables should be re-loaded from disk (unless
once a day is good enough)?;
#X msg 883 478 all speed 2;
#X msg 646 489 all speed 1;
#X obj 1211 948 *~ 0.2;
#X msg 1133 478 all speed 3;
#X obj 23 551 simple_play~;
#X obj 23 529 bng 15 250 50 0 empty empty empty 17 7 0 10 -262144 -1
-1;
#X obj 1408 628 s pos_a;
#X obj 1581 426 s pos_a;
#X obj 1645 3 oscparse;
#X obj 1645 -21 netreceive -u -b;
#X msg 1657 -48 listen 0;
#X msg 1645 -76 listen 9009;
#X obj 1645 29 list trim;
#X obj 1613 93 vsl 15 128 0 127 0 0 empty empty empty 0 -9 0 10 -262144
-1 -1 8800 1;
#X obj 1645 54 route vol mute;
#X obj 1660 103 tgl 15 0 empty empty empty 17 7 0 10 -262144 -1 -1
0 1;
#X obj 1563 -38 loadbang;
#X obj 909 -53 audio_tables_loader;
#X obj 909 -77 loadbang;
#X obj 909 -31 bng 15 250 50 0 empty empty empty 17 7 0 10 -262144
-1 -1;
#X obj 54 669 static_player~;
#X obj 54 643 table_lister;
#X obj 53 700 gain~;
#X obj 22 985 dac~ 1 2;
#X obj 54 608 bng 15 250 50 0 empty empty empty 17 7 0 10 -262144 -1
-1;
#X obj 150 700 bng 15 250 50 0 empty empty empty 17 7 0 10 -262144
-1 -1;
#X obj 561 523 clone grainA~ 12;
#X obj 798 511 clone grainA~ 12;
#X obj 1046 512 clone grainA~ 12;
#X obj 480 978 *~ 10;
#X obj 729 980 *~ 10;
#X obj 968 976 *~ 10;
#X obj 246 975 *~ 5;
#X obj 374 523 clone grainA~ 12;
#X obj 1492 467 r buffer_a_full;
#X obj 1537 523 bng 15 250 50 0 empty empty empty 17 7 0 10 -262144
-1 -1;
#X obj 258 1210 r params;
#X obj 1521 1222 + 1;
#X obj 1488 1168 tgl 15 0 empty empty empty 17 7 0 10 -262144 -1 -1
1 1;
#X obj 1488 1221 f;
#X msg 1572 1192 0;
#X text 1600 1190 start over;
#X obj 1488 1195 metro 1;
#X obj 1406 1211 vsl 15 128 0 127 0 0 empty empty empty 0 -9 0 10 -262144
-1 -1 490 1;
#X floatatom 1406 1356 5 0 0 0 - - -, f 5;
#X text 1447 1149 playback / freeze;
#X obj 1617 1223 bng 15 250 50 0 empty empty empty 17 7 0 10 -262144
-1 -1;
#X obj 1572 1167 r buffer_b_full;
#X obj 1488 1328 s pos_b;
#X obj 1478 1117 loadbang;
#X obj 1387 419 loadbang;
#N canvas 43 524 787 555 track5 0;
#X obj 155 44 inlet~;
#N canvas 256 218 769 510 lpf 0;
#X obj 153 279 bob~;
#X obj 184 222 mtof;
#X msg 276 238 0;
#X obj 276 264 sig~;
#X obj 183 246 sig~;
#X floatatom 356 350 5 0 0 0 - - -, f 5;
#X obj 352 143 vsl 15 128 0 127 0 0 empty empty empty 0 -9 0 10 -262144
-1 -1 7545 1;
#X obj 274 215 loadbang;
#X floatatom 353 311 5 0 0 0 - - -, f 5;
#X text 375 218 lowpass filter;
#X obj 412 143 loadbang;
#X text 392 348 cutoff freq;
#X text 231 118 moog style lowpass, f 9;
#X msg 417 170 87;
#X obj 167 318 outlet~;
#X obj 142 21 inlet~;
#X text 564 241 first arg: max \, second is min;
#X obj 517 276 lpf_ramp_lfo2 15000 10000;
#X connect 0 0 14 0;
#X connect 1 0 4 0;
#X connect 1 0 5 0;
#X connect 2 0 3 0;
#X connect 3 0 0 2;
#X connect 4 0 0 1;
#X connect 6 0 1 0;
#X connect 6 0 8 0;
#X connect 7 0 2 0;
#X connect 10 0 13 0;
#X connect 13 0 6 0;
#X connect 15 0 0 0;
#X connect 17 0 6 0;
#X restore 194 223 pd lpf;
#X obj 151 477 throw~ track5;
#X connect 0 0 1 0;
#X connect 1 0 2 0;
#X restore 256 1288 pd track5;
#X obj 194 1726 scope;
#X obj 299 1459 gain~;
#X obj 283 1661 dac~ 1 2;
#X obj 299 1383 jon~;
#N canvas 60 84 387 608 receive_params 0;
#X msg 58 293 input_diffusion1 \$1;
#X msg 70 349 input_diffusion2 \$1;
#X msg 78 410 decay_diffusion1 \$1;
#X msg 87 469 decay_diffusion2 \$1;
#X msg 33 75 predelay \$1;
#X msg 33 132 bandwidth \$1;
#X msg 33 183 damping \$1;
#X msg 33 238 decay \$1;
#X msg 125 533 excursion \$1;
#X obj 33 547 outlet;
#X obj 33 48 r predelay;
#X obj 33 105 r bandwidth;
#X obj 33 159 r damping;
#X obj 33 213 r decay;
#X obj 58 268 r input_diffusion1;
#X obj 70 322 r input_diffusion2;
#X obj 78 383 r decay_diffusion1;
#X obj 87 442 r decay_diffusion2;
#X obj 125 503 r excursion;
#X connect 0 0 9 0;
#X connect 1 0 9 0;
#X connect 2 0 9 0;
#X connect 3 0 9 0;
#X connect 4 0 9 0;
#X connect 5 0 9 0;
#X connect 6 0 9 0;
#X connect 7 0 9 0;
#X connect 8 0 9 0;
#X connect 10 0 4 0;
#X connect 11 0 5 0;
#X connect 12 0 6 0;
#X connect 13 0 7 0;
#X connect 14 0 0 0;
#X connect 15 0 1 0;
#X connect 16 0 2 0;
#X connect 17 0 3 0;
#X connect 18 0 8 0;
#X restore 340 1381 pd receive_params;
#X obj 323 1423 *~;
#X obj 349 1403 r wet;
#X obj 247 1425 *~;
#X obj 283 1423 r dry;
#X obj 251 1362 *~ 2;
#X obj 188 1613 *~ 5;
#X obj 250 1331 catch~ track5;
#X floatatom 1472 598 5 0 0 0 - - -, f 5;
#X floatatom 1519 1283 5 0 0 0 - - -, f 5;
#X obj 258 1238 clone grainB~ 12;
#X obj 560 1214 r params;
#X obj 496 1730 scope;
#X obj 599 1458 gain~;
#X obj 585 1665 dac~ 1 2;
#X obj 601 1387 jon~;
#N canvas 60 84 387 608 receive_params 0;
#X msg 58 293 input_diffusion1 \$1;
#X msg 70 349 input_diffusion2 \$1;
#X msg 78 410 decay_diffusion1 \$1;
#X msg 87 469 decay_diffusion2 \$1;
#X msg 33 75 predelay \$1;
#X msg 33 132 bandwidth \$1;
#X msg 33 183 damping \$1;
#X msg 33 238 decay \$1;
#X msg 125 533 excursion \$1;
#X obj 33 547 outlet;
#X obj 33 48 r predelay;
#X obj 33 105 r bandwidth;
#X obj 33 159 r damping;
#X obj 33 213 r decay;
#X obj 58 268 r input_diffusion1;
#X obj 70 322 r input_diffusion2;
#X obj 78 383 r decay_diffusion1;
#X obj 87 442 r decay_diffusion2;
#X obj 125 503 r excursion;
#X connect 0 0 9 0;
#X connect 1 0 9 0;
#X connect 2 0 9 0;
#X connect 3 0 9 0;
#X connect 4 0 9 0;
#X connect 5 0 9 0;
#X connect 6 0 9 0;
#X connect 7 0 9 0;
#X connect 8 0 9 0;
#X connect 10 0 4 0;
#X connect 11 0 5 0;
#X connect 12 0 6 0;
#X connect 13 0 7 0;
#X connect 14 0 0 0;
#X connect 15 0 1 0;
#X connect 16 0 2 0;
#X connect 17 0 3 0;
#X connect 18 0 8 0;
#X restore 642 1385 pd receive_params;
#X obj 625 1427 *~;
#X obj 651 1407 r wet;
#X obj 549 1429 *~;
#X obj 585 1427 r dry;
#X obj 553 1366 *~ 2;
#X obj 490 1617 *~ 5;
#X msg 494 1190 all speed 1;
#X obj 560 1242 clone grainB~ 12;
#X obj 552 1335 catch~ track6;
#N canvas 41 524 787 555 track6 0;
#X obj 155 44 inlet~;
#N canvas 256 218 769 510 lpf 0;
#X obj 153 279 bob~;
#X obj 184 222 mtof;
#X msg 276 238 0;
#X obj 276 264 sig~;
#X obj 183 246 sig~;
#X floatatom 356 350 5 0 0 0 - - -, f 5;
#X obj 352 143 vsl 15 128 0 127 0 0 empty empty empty 0 -9 0 10 -262144
-1 -1 5009 1;
#X obj 274 215 loadbang;
#X floatatom 353 311 5 0 0 0 - - -, f 5;
#X text 375 218 lowpass filter;
#X obj 412 143 loadbang;
#X text 392 348 cutoff freq;
#X text 231 118 moog style lowpass, f 9;
#X msg 417 170 87;
#X obj 167 318 outlet~;
#X obj 142 21 inlet~;
#X text 564 241 first arg: max \, second is min;
#X obj 517 276 lpf_ramp_lfo2 15000 10000;
#X connect 0 0 14 0;
#X connect 1 0 4 0;
#X connect 1 0 5 0;
#X connect 2 0 3 0;
#X connect 3 0 0 2;
#X connect 4 0 0 1;
#X connect 6 0 1 0;
#X connect 6 0 8 0;
#X connect 7 0 2 0;
#X connect 10 0 13 0;
#X connect 13 0 6 0;
#X connect 15 0 0 0;
#X connect 17 0 6 0;
#X restore 194 223 pd lpf;
#X obj 151 477 throw~ track6;
#X connect 0 0 1 0;
#X connect 1 0 2 0;
#X restore 558 1292 pd track6;
#X obj 832 1219 r params;
#X obj 768 1735 scope;
#X obj 873 1468 gain~;
#X obj 857 1670 dac~ 1 2;
#X obj 873 1392 jon~;
#N canvas 60 84 387 608 receive_params 0;
#X msg 58 293 input_diffusion1 \$1;
#X msg 70 349 input_diffusion2 \$1;
#X msg 78 410 decay_diffusion1 \$1;
#X msg 87 469 decay_diffusion2 \$1;
#X msg 33 75 predelay \$1;
#X msg 33 132 bandwidth \$1;
#X msg 33 183 damping \$1;
#X msg 33 238 decay \$1;
#X msg 125 533 excursion \$1;
#X obj 33 547 outlet;
#X obj 33 48 r predelay;
#X obj 33 105 r bandwidth;
#X obj 33 159 r damping;
#X obj 33 213 r decay;
#X obj 58 268 r input_diffusion1;
#X obj 70 322 r input_diffusion2;
#X obj 78 383 r decay_diffusion1;
#X obj 87 442 r decay_diffusion2;
#X obj 125 503 r excursion;
#X connect 0 0 9 0;
#X connect 1 0 9 0;
#X connect 2 0 9 0;
#X connect 3 0 9 0;
#X connect 4 0 9 0;
#X connect 5 0 9 0;
#X connect 6 0 9 0;
#X connect 7 0 9 0;
#X connect 8 0 9 0;
#X connect 10 0 4 0;
#X connect 11 0 5 0;
#X connect 12 0 6 0;
#X connect 13 0 7 0;
#X connect 14 0 0 0;
#X connect 15 0 1 0;
#X connect 16 0 2 0;
#X connect 17 0 3 0;
#X connect 18 0 8 0;
#X restore 914 1390 pd receive_params;
#X obj 897 1432 *~;
#X obj 923 1412 r wet;
#X obj 821 1434 *~;
#X obj 857 1432 r dry;
#X obj 825 1371 *~ 2;
#X obj 762 1622 *~ 5;
#X obj 832 1247 clone grainB~ 12;
#X obj 1109 1220 r params;
#X obj 1045 1736 scope;
#X obj 1150 1469 gain~;
#X obj 1134 1671 dac~ 1 2;
#X obj 1150 1393 jon~;
#N canvas 60 84 387 608 receive_params 0;
#X msg 58 293 input_diffusion1 \$1;
#X msg 70 349 input_diffusion2 \$1;
#X msg 78 410 decay_diffusion1 \$1;
#X msg 87 469 decay_diffusion2 \$1;
#X msg 33 75 predelay \$1;
#X msg 33 132 bandwidth \$1;
#X msg 33 183 damping \$1;
#X msg 33 238 decay \$1;
#X msg 125 533 excursion \$1;
#X obj 33 547 outlet;
#X obj 33 48 r predelay;
#X obj 33 105 r bandwidth;
#X obj 33 159 r damping;
#X obj 33 213 r decay;
#X obj 58 268 r input_diffusion1;
#X obj 70 322 r input_diffusion2;
#X obj 78 383 r decay_diffusion1;
#X obj 87 442 r decay_diffusion2;
#X obj 125 503 r excursion;
#X connect 0 0 9 0;
#X connect 1 0 9 0;
#X connect 2 0 9 0;
#X connect 3 0 9 0;
#X connect 4 0 9 0;
#X connect 5 0 9 0;
#X connect 6 0 9 0;
#X connect 7 0 9 0;
#X connect 8 0 9 0;
#X connect 10 0 4 0;
#X connect 11 0 5 0;
#X connect 12 0 6 0;
#X connect 13 0 7 0;
#X connect 14 0 0 0;
#X connect 15 0 1 0;
#X connect 16 0 2 0;
#X connect 17 0 3 0;
#X connect 18 0 8 0;
#X restore 1191 1391 pd receive_params;
#X obj 1174 1433 *~;
#X obj 1200 1413 r wet;
#X obj 1098 1435 *~;
#X obj 1134 1433 r dry;
#X obj 1102 1372 *~ 2;
#X obj 1039 1623 *~ 5;
#X obj 1109 1248 clone grainB~ 12;
#N canvas 39 524 787 555 track7 0;
#X obj 155 44 inlet~;
#N canvas 256 218 769 510 lpf 0;
#X obj 153 279 bob~;
#X obj 184 222 mtof;
#X msg 276 238 0;
#X obj 276 264 sig~;
#X obj 183 246 sig~;
#X floatatom 356 350 5 0 0 0 - - -, f 5;
#X obj 352 143 vsl 15 128 0 127 0 0 empty empty empty 0 -9 0 10 -262144
-1 -1 3053 1;
#X obj 274 215 loadbang;
#X floatatom 353 311 5 0 0 0 - - -, f 5;
#X text 375 218 lowpass filter;
#X obj 412 143 loadbang;
#X text 392 348 cutoff freq;
#X text 231 118 moog style lowpass, f 9;
#X msg 417 170 87;
#X obj 167 318 outlet~;
#X obj 142 21 inlet~;
#X text 564 241 first arg: max \, second is min;
#X obj 517 276 lpf_ramp_lfo2 15000 10000;
#X connect 0 0 14 0;
#X connect 1 0 4 0;
#X connect 1 0 5 0;
#X connect 2 0 3 0;
#X connect 3 0 0 2;
#X connect 4 0 0 1;
#X connect 6 0 1 0;
#X connect 6 0 8 0;
#X connect 7 0 2 0;
#X connect 10 0 13 0;
#X connect 13 0 6 0;
#X connect 15 0 0 0;
#X connect 17 0 6 0;
#X restore 194 223 pd lpf;
#X obj 151 477 throw~ track7;
#X connect 0 0 1 0;
#X connect 1 0 2 0;
#X restore 830 1297 pd track7;
#X obj 824 1340 catch~ track7;
#N canvas 39 524 787 555 track8 0;
#X obj 155 44 inlet~;
#N canvas 256 218 769 510 lpf 0;
#X obj 153 279 bob~;
#X obj 184 222 mtof;
#X msg 276 238 0;
#X obj 276 264 sig~;
#X obj 183 246 sig~;
#X floatatom 356 350 5 0 0 0 - - -, f 5;
#X obj 352 143 vsl 15 128 0 127 0 0 empty empty empty 0 -9 0 10 -262144
-1 -1 5673 1;
#X obj 274 215 loadbang;
#X floatatom 353 311 5 0 0 0 - - -, f 5;
#X text 375 218 lowpass filter;
#X obj 412 143 loadbang;
#X text 392 348 cutoff freq;
#X text 231 118 moog style lowpass, f 9;
#X msg 417 170 87;
#X obj 167 318 outlet~;
#X obj 142 21 inlet~;
#X text 564 241 first arg: max \, second is min;
#X obj 517 276 lpf_ramp_lfo2 15000 10000;
#X connect 0 0 14 0;
#X connect 1 0 4 0;
#X connect 1 0 5 0;
#X connect 2 0 3 0;
#X connect 3 0 0 2;
#X connect 4 0 0 1;
#X connect 6 0 1 0;
#X connect 6 0 8 0;
#X connect 7 0 2 0;
#X connect 10 0 13 0;
#X connect 13 0 6 0;
#X connect 15 0 0 0;
#X connect 17 0 6 0;
#X restore 194 223 pd lpf;
#X obj 151 477 throw~ track8;
#X connect 0 0 1 0;
#X connect 1 0 2 0;
#X restore 1107 1298 pd track8;
#X obj 1101 1341 catch~ track8;
#X msg 766 1195 all speed 2;
#X msg 1043 1196 all speed 3;
#X obj 1538 582 timer;
#X obj 1540 550 t b b;
#X obj 1615 1281 timer;
#X obj 1617 1249 t b b;
#X obj 1538 607 / 1000;
#X floatatom 1538 632 5 0 0 0 - - -, f 5;
#X obj 1616 1305 / 1000;
#X floatatom 1616 1330 5 0 0 0 - - -, f 5;
#X msg 1406 1174 4.9;
#X msg 1326 474 4.9;
#X obj 1408 547 * 4.9;
#X obj 1488 1247 * 4.9;
#X msg 465 495 all speed 0.5;
#X msg 183 1180 all speed 0.5;
#X msg 391 783 -2;
#X obj 257 1263 *~ 0.5;
#X obj 559 1267 *~ 0.5;
#X obj 831 1272 *~ 0.5;
#X obj 1108 1273 *~ 0.5;
#N canvas 685 117 1043 753 track1 0;
#X obj 39 276 hsl 128 15 0 136 0 1 empty empty empty -2 -8 0 10 -262144
-1 -1 4202 1;
#X text 71 259 frequency;
#X obj 199 161 + 100;
#X obj 199 185 dbtorms;
#N canvas 0 50 450 300 (subpatch) 0;
#X array \$0-spectrum 512 float 0;
#X coords 0 1 512 0 400 140 1;
#X restore 638 424 graph;
#X msg 472 317 lowpass;
#X msg 473 342 highpass;
#X msg 473 362 bandpass;
#X msg 473 382 resonant;
#X msg 473 402 notch;
#X floatatom 199 214 5 0 0 0 - - -, f 5;
#X text 263 125 The gain of the resonance is equal to Q. By convention
\, -3dB means no resonance for lowpass and highpass.;
#X obj 199 132 nbx 5 14 -1e+37 1e+37 0 1 empty empty empty 0 -8 0 10
-262144 -1 -1 9 256;
#N canvas 0 50 450 300 (subpatch) 0;
#X array \$0-filter.response 400 float 0;
#X coords 0 1 399 -1 400 140 1;
#X restore 638 243 graph;
#X obj 250 568 tgl 15 0 empty empty empty 17 7 0 10 -262144 -1 -1 0
1;
#X text 269 567 plot phase response;
#X obj 207 673 spectrum.mmb~ \$0-spectrum;
#X msg 374 672 logfreq 1 \, dbrange -25 25;
#X obj 70 317 mtof;
#X floatatom 77 352 0 0 0 0 - - -;
#X obj 202 644 *~ 39;
#X obj 374 642 loadbang;
#X obj 152 487 filtercoeff.mmb lowpass;
#X obj 76 551 biquadm.mmb~;
#X obj 156 618 filterplot.mmb \$0-filter.response;
#X msg 250 587 phase \$1;
#X obj 184 448 t b f;
#X obj 241 448 t b f;
#X obj 289 448 t b a;
#X msg 473 532 lop;
#X msg 473 552 hip;
#X text 466 301 filter types:;
#X text 461 514 vanilla filters:;
#X obj 77 471 inlet~;
#X text 322 150 careful with this one;
#X text 236 211 Q - refers to resonance for lowpass \, highpass \,
and resonant. Refers to bandwidth for bandpass and notch;
#X text 156 24 note: settings don't save.. add message boxes to create
presets - for example:;
#X text 319 65 bandpass high-mids:;
#X obj 511 39 bng 15 250 50 0 empty empty empty 17 7 0 10 -262144 -1
-1;
#X floatatom 103 309 5 0 0 0 - - -, f 5;
#X obj 511 5 loadbang;
#N canvas 887 153 900 430 lpf 0;
#X obj 153 279 bob~;
#X obj 184 222 mtof;
#X msg 276 238 0;
#X obj 276 264 sig~;
#X obj 183 246 sig~;
#X floatatom 356 350 5 0 0 0 - - -, f 5;
#X obj 352 143 vsl 15 128 0 127 0 0 empty empty empty 0 -9 0 10 -262144
-1 -1 2026 1;
#X obj 274 215 loadbang;
#X floatatom 353 311 5 0 0 0 - - -, f 5;
#X text 375 218 lowpass filter;
#X obj 412 143 loadbang;
#X text 392 348 cutoff freq;
#X text 231 118 moog style lowpass, f 9;
#X msg 417 170 87;
#X obj 153 322 outlet~;
#X obj 142 21 inlet~;
#X obj 517 272 lpf_ramp_lfo2 10000 5000;
#X connect 0 0 14 0;
#X connect 1 0 4 0;
#X connect 1 0 5 0;
#X connect 2 0 3 0;
#X connect 3 0 0 2;
#X connect 4 0 0 1;
#X connect 6 0 1 0;
#X connect 6 0 8 0;
#X connect 7 0 2 0;
#X connect 10 0 13 0;
#X connect 13 0 6 0;
#X connect 15 0 0 0;
#X connect 16 0 6 0;
#X restore 71 647 pd lpf;
#X obj 41 704 throw~ track1;
#X msg 451 65 9;
#X msg 489 64 45;
#X connect 0 0 18 0;
#X connect 0 0 39 0;
#X connect 2 0 3 0;
#X connect 3 0 10 0;
#X connect 5 0 28 0;
#X connect 6 0 28 0;
#X connect 7 0 28 0;
#X connect 8 0 28 0;
#X connect 9 0 28 0;
#X connect 10 0 26 0;
#X connect 12 0 2 0;
#X connect 14 0 25 0;
#X connect 17 0 16 1;
#X connect 18 0 19 0;
#X connect 19 0 22 0;
#X connect 20 0 16 0;
#X connect 21 0 17 0;
#X connect 22 0 23 1;
#X connect 22 0 24 0;
#X connect 23 0 20 0;
#X connect 23 0 41 0;
#X connect 25 0 24 1;
#X connect 26 0 22 0;
#X connect 26 1 22 1;
#X connect 27 0 22 0;
#X connect 27 1 22 2;
#X connect 28 0 22 0;
#X connect 28 1 22 3;
#X connect 29 0 28 0;
#X connect 30 0 28 0;
#X connect 33 0 23 0;
#X connect 38 0 43 0;
#X connect 38 0 44 0;
#X connect 38 0 7 0;
#X connect 40 0 38 0;
#X connect 41 0 42 0;
#X connect 43 0 12 0;
#X connect 44 0 0 0;
#X restore 368 594 pd track1;
#X obj 372 548 *~ 2;
#X obj 562 546 *~ 2;
#X obj 799 539 *~ 2;
#X obj 1044 538 *~ 2;
#X obj 881 -75 bng 15 250 50 0 empty empty empty 17 7 0 10 -262144
-1 -1;
#X connect 15 0 16 0;
#X connect 15 0 37 0;
#X connect 16 0 99 0;
#X connect 17 0 20 0;
#X connect 19 0 18 0;
#X connect 20 0 19 0;
#X connect 22 0 39 0;
#X connect 22 0 92 0;
#X connect 24 0 100 0;
#X connect 24 0 38 0;
#X connect 26 0 27 0;
#X connect 27 0 149 0;
#X connect 28 0 27 1;
#X connect 29 0 175 0;
#X connect 30 0 32 1;
#X connect 31 0 41 0;
#X connect 32 0 30 0;
#X connect 32 0 267 0;
#X connect 33 0 32 1;
#X connect 35 0 102 0;
#X connect 35 0 40 0;
#X connect 41 0 32 0;
#X connect 42 0 43 0;
#X connect 42 0 267 1;
#X connect 48 0 4 0;
#X connect 51 0 52 0;
#X connect 51 0 52 1;
#X connect 53 0 54 0;
#X connect 53 0 54 1;
#X connect 55 0 56 0;
#X connect 55 0 56 1;
#X connect 57 0 71 0;
#X connect 62 0 57 2;
#X connect 63 0 75 0;
#X connect 64 0 63 2;
#X connect 66 0 65 0;
#X connect 67 0 68 0;
#X connect 71 0 53 0;
#X connect 72 0 71 1;
#X connect 73 0 53 0;
#X connect 74 0 73 1;
#X connect 75 0 55 0;
#X connect 76 0 75 1;
#X connect 77 0 55 0;
#X connect 78 0 77 1;
#X connect 80 0 69 0;
#X connect 80 0 65 1;
#X connect 82 0 68 1;
#X connect 82 0 70 0;
#X connect 85 0 98 0;
#X connect 85 0 96 0;
#X connect 85 0 97 0;
#X connect 85 0 103 0;
#X connect 86 0 88 0;
#X connect 87 0 86 2;
#X connect 88 0 51 0;
#X connect 89 0 88 1;
#X connect 90 0 51 0;
#X connect 91 0 90 1;
#X connect 92 0 101 0;
#X connect 93 0 86 0;
#X connect 93 0 90 0;
#X connect 93 0 174 0;
#X connect 96 0 22 0;
#X connect 97 0 24 0;
#X connect 98 0 35 0;
#X connect 99 0 14 0;
#X connect 100 0 25 0;
#X connect 101 0 21 0;
#X connect 102 0 36 0;
#X connect 104 0 168 0;
#X connect 105 0 169 0;
#X connect 106 0 170 0;
#X connect 107 0 108 0;
#X connect 107 0 108 1;
#X connect 109 0 111 0;
#X connect 110 0 109 2;
#X connect 111 0 107 0;
#X connect 112 0 111 1;
#X connect 113 0 107 0;
#X connect 114 0 113 1;
#X connect 121 0 120 0;
#X connect 122 0 121 0;
#X connect 125 0 145 0;
#X connect 125 0 142 0;
#X connect 125 0 143 0;
#X connect 125 0 269 0;
#X connect 126 0 93 0;
#X connect 127 0 57 0;
#X connect 127 0 73 0;
#X connect 127 0 171 0;
#X connect 128 0 63 0;
#X connect 128 0 77 0;
#X connect 128 0 172 0;
#X connect 129 0 109 0;
#X connect 129 0 113 0;
#X connect 129 0 173 0;
#X connect 130 0 131 0;
#X connect 130 0 132 0;
#X connect 131 0 82 0;
#X connect 132 0 80 0;
#X connect 142 0 169 0;
#X connect 143 0 168 0;
#X connect 145 0 170 0;
#X connect 147 0 146 0;
#X connect 150 0 154 0;
#X connect 151 0 150 0;
#X connect 152 0 151 0;
#X connect 153 0 151 0;
#X connect 154 0 156 0;
#X connect 156 0 155 0;
#X connect 156 1 157 0;
#X connect 158 0 153 0;
#X connect 158 0 85 0;
#X connect 159 0 161 0;
#X connect 160 0 159 0;
#X connect 162 0 164 0;
#X connect 162 0 123 0;
#X connect 162 1 167 0;
#X connect 163 0 162 0;
#X connect 164 0 165 0;
#X connect 164 0 165 1;
#X connect 166 0 163 0;
#X connect 167 0 166 0;
#X connect 168 0 278 0;
#X connect 169 0 279 0;
#X connect 170 0 280 0;
#X connect 171 0 138 0;
#X connect 172 0 139 0;
#X connect 173 0 140 0;
#X connect 174 0 10 0;
#X connect 175 0 277 0;
#X connect 176 0 33 0;
#X connect 176 0 177 0;
#X connect 177 0 258 0;
#X connect 178 0 208 0;
#X connect 179 0 181 1;
#X connect 180 0 184 0;
#X connect 181 0 179 0;
#X connect 181 0 268 0;
#X connect 182 0 181 1;
#X connect 184 0 181 0;
#X connect 185 0 186 0;
#X connect 185 0 268 1;
#X connect 188 0 260 0;
#X connect 189 0 182 0;
#X connect 189 0 188 0;
#X connect 191 0 265 0;
#X connect 191 0 180 0;
#X connect 192 0 31 0;
#X connect 192 0 266 0;
#X connect 195 0 196 0;
#X connect 195 0 196 1;
#X connect 197 0 199 0;
#X connect 198 0 197 2;
#X connect 199 0 195 0;
#X connect 200 0 199 1;
#X connect 201 0 195 0;
#X connect 202 0 201 1;
#X connect 203 0 197 0;
#X connect 203 0 201 0;
#X connect 203 0 204 0;
#X connect 204 0 194 0;
#X connect 205 0 203 0;
#X connect 208 0 272 0;
#X connect 209 0 222 0;
#X connect 211 0 212 0;
#X connect 211 0 212 1;
#X connect 213 0 215 0;
#X connect 214 0 213 2;
#X connect 215 0 211 0;
#X connect 216 0 215 1;
#X connect 217 0 211 0;
#X connect 218 0 217 1;
#X connect 219 0 213 0;
#X connect 219 0 217 0;
#X connect 219 0 220 0;
#X connect 220 0 210 0;
#X connect 221 0 222 0;
#X connect 222 0 273 0;
#X connect 223 0 219 0;
#X connect 225 0 237 0;
#X connect 227 0 228 0;
#X connect 227 0 228 1;
#X connect 229 0 231 0;
#X connect 230 0 229 2;
#X connect 231 0 227 0;
#X connect 232 0 231 1;
#X connect 233 0 227 0;
#X connect 234 0 233 1;
#X connect 235 0 229 0;
#X connect 235 0 233 0;
#X connect 235 0 236 0;
#X connect 236 0 226 0;
#X connect 237 0 274 0;
#X connect 238 0 250 0;
#X connect 240 0 241 0;
#X connect 240 0 241 1;
#X connect 242 0 244 0;
#X connect 243 0 242 2;
#X connect 244 0 240 0;
#X connect 245 0 244 1;
#X connect 246 0 240 0;
#X connect 247 0 246 1;
#X connect 248 0 242 0;
#X connect 248 0 246 0;
#X connect 248 0 249 0;
#X connect 249 0 239 0;
#X connect 250 0 275 0;
#X connect 252 0 235 0;
#X connect 254 0 248 0;
#X connect 255 0 237 0;
#X connect 256 0 250 0;
#X connect 257 0 261 0;
#X connect 258 0 257 0;
#X connect 258 1 257 1;
#X connect 259 0 263 0;
#X connect 260 0 259 0;
#X connect 260 1 259 1;
#X connect 261 0 262 0;
#X connect 263 0 264 0;
#X connect 265 0 185 0;
#X connect 266 0 42 0;
#X connect 267 0 148 0;
#X connect 267 0 206 0;
#X connect 268 0 190 0;
#X connect 268 0 207 0;
#X connect 269 0 175 0;
#X connect 270 0 208 0;
#X connect 271 0 51 1;
#X connect 271 0 195 1;
#X connect 272 0 193 0;
#X connect 273 0 224 0;
#X connect 274 0 251 0;
#X connect 275 0 253 0;
#X connect 277 0 276 0;
#X connect 278 0 133 0;
#X connect 279 0 134 0;
#X connect 280 0 135 0;
#X connect 281 0 159 0;
