#N canvas 714 55 1074 900 10;
#X msg 335 105 thresh 0.01 0.05;
#X obj 335 79 loadbang;
#X obj 310 195 bng 15 250 50 0 empty empty empty 17 7 0 10 -262144
-1 -1;
#X obj 362 164 route 0;
#X msg 173 80 set \$1;
#X obj 173 16 loadbang;
#X obj 173 38 f \$1;
#X obj 173 58 + 1;
#X obj 173 101 adc~;
#X floatatom 126 80 5 0 0 0 - - -, f 5;
#X text 452 107 set trigger threshold;
#X text 412 124 sound must exceed the second number;
#X text 397 139 and then fall to the first number to trigger;
#X text 185 194 indicates a trigger;
#X obj 335 137 bonk~;
#X obj 29 446 f;
#X obj 67 445 + 1;
#X obj 33 330 spigot;
#X obj 33 303 bng 15 250 50 0 empty empty empty 17 7 0 10 -262144 -1
-1;
#X msg 103 301 1;
#X obj 31 360 t b b b;
#X msg 72 300 0;
#X obj 30 399 bng 15 250 50 0 empty empty empty 17 7 0 10 -262144 -1
-1;
#X obj 120 386 delay 10000;
#X text 26 266 conversation scoring system;
#X text 80 421 scores 3 triggers with 10 seconds between them;
#X text 62 529 amount to raise volume to in all other zones;
#X obj 31 749 outlet;
#X msg 122 559 1;
#X obj 122 632 f;
#X obj 170 633 + 1;
#X msg 199 590 1;
#X text 222 633 if 30 seconds pass with no trigger send ramp down to
zones;
#X obj 654 415 bng 15 250 50 0 empty empty empty 17 7 0 10 -262144
-1 -1;
#X obj 706 384 route 0;
#X obj 654 462 delay 5000;
#X obj 706 412 t b b;
#X text 529 414 indicates a trigger;
#X text 406 463 delays \, then goes back to normal preset;
#X text 762 442 amount to raise volume to in all other zones;
#X text 682 520 the normal db level to return to;
#X msg 653 518 -33;
#X msg 733 442 -30;
#X text 696 351 old logic;
#X floatatom 118 455 5 0 0 0 - - -, f 5;
#X floatatom 229 689 5 0 0 0 - - -, f 5;
#X msg 77 499 0;
#X obj 122 717 t b b b;
#X msg 162 561 0;
#X obj 122 589 metro 1000;
#X obj 122 660 > 30;
#X obj 122 691 sel 1;
#X obj 108 233 loadbang;
#X obj 29 476 sel 1;
#X text 71 475 after 2 points we send a masking msg;
#X text 36 545 change this to affect overall noise channel volume;
#X text 166 745 change this to affect overall noise channel volume
;
#X msg 30 529 -34;
#X msg 122 744 -37;
#X text 192 791 -34 and -37 gives us 48-51 db in the space;
#X text 201 816 -37 and -40 would be a good thing to try if they want
us to turn the masking down;
#X text 210 854 at -40 and -43 masking is too quiet at around 44db
;
#X connect 0 0 14 0;
#X connect 1 0 0 0;
#X connect 2 0 18 0;
#X connect 3 0 2 0;
#X connect 4 0 8 0;
#X connect 5 0 6 0;
#X connect 6 0 7 0;
#X connect 7 0 4 0;
#X connect 7 0 9 0;
#X connect 8 0 14 0;
#X connect 14 1 3 0;
#X connect 15 0 16 0;
#X connect 15 0 44 0;
#X connect 15 0 53 0;
#X connect 16 0 15 1;
#X connect 17 0 20 0;
#X connect 18 0 17 0;
#X connect 18 0 31 0;
#X connect 19 0 17 1;
#X connect 20 0 22 0;
#X connect 20 1 23 0;
#X connect 20 2 21 0;
#X connect 21 0 17 1;
#X connect 22 0 15 0;
#X connect 23 0 19 0;
#X connect 28 0 49 0;
#X connect 29 0 45 0;
#X connect 29 0 30 0;
#X connect 29 0 50 0;
#X connect 30 0 29 1;
#X connect 31 0 29 1;
#X connect 33 0 35 0;
#X connect 34 0 33 0;
#X connect 34 0 36 0;
#X connect 35 0 41 0;
#X connect 36 1 42 0;
#X connect 46 0 15 1;
#X connect 47 0 58 0;
#X connect 47 1 31 0;
#X connect 47 2 48 0;
#X connect 48 0 49 0;
#X connect 49 0 29 0;
#X connect 50 0 51 0;
#X connect 51 0 47 0;
#X connect 52 0 19 0;
#X connect 53 0 57 0;
#X connect 53 0 28 0;
#X connect 53 0 46 0;
#X connect 57 0 27 0;
#X connect 58 0 27 0;
