#N canvas 3 22 1676 976 10;
#X obj 512 236 mtof;
#X floatatom 107 73 5 0 127 0 - - -, f 5;
#X obj 463 141 int;
#X msg 356 182 A;
#X msg 416 182 B;
#X msg 83 182 C;
#X msg 146 182 D;
#X msg 206 182 E;
#X obj 463 180 t b f;
#X symbolatom 249 341 10 0 0 0 - - -, f 10;
#X obj 248 292 pack s f;
#X obj 105 152 select 0 1 2 3 4 5 6 7 8 9 10 11;
#X obj 105 128 mod 12;
#X msg 234 182 F;
#X msg 298 182 G;
#X obj 463 119 / 12;
#X msg 116 182 C#;
#X msg 175 182 Eb;
#X msg 267 182 F#;
#X msg 327 182 G#;
#X msg 386 182 Bb;
#X obj 440 227 - 1;
#X obj 248 361 outlet;
#X obj 105 102 t f f;
#X text 144 77 <-- MIDI number;
#X text 322 336 <-- MIDI note name;
#X msg 248 315 symbol \$1\$2;
#X obj 517 305 phasor~;
#X obj 540 367 *~;
#X obj 541 474 dac~;
#X obj 109 311 send midinote2;
#X obj 890 235 bng 15 250 50 0 empty empty empty 17 7 0 10 -262144
-1 -1;
#X obj 479 334 lop~ 150;
#X msg 851 334 1 5000;
#X msg 936 336 0 5000;
#X obj 107 10 inlet;
#X obj 512 197 + 60;
#X obj 910 270 delay 5000;
#X obj 774 517 vline~;
#X obj 112 37 t b f;
#X connect 0 0 27 0;
#X connect 1 0 23 0;
#X connect 2 0 8 0;
#X connect 3 0 10 0;
#X connect 4 0 10 0;
#X connect 5 0 10 0;
#X connect 6 0 10 0;
#X connect 7 0 10 0;
#X connect 8 0 10 0;
#X connect 8 1 21 0;
#X connect 9 0 22 0;
#X connect 9 0 30 0;
#X connect 10 0 26 0;
#X connect 11 0 5 0;
#X connect 11 1 16 0;
#X connect 11 2 6 0;
#X connect 11 3 17 0;
#X connect 11 4 7 0;
#X connect 11 5 13 0;
#X connect 11 6 18 0;
#X connect 11 7 14 0;
#X connect 11 8 19 0;
#X connect 11 9 3 0;
#X connect 11 10 20 0;
#X connect 11 11 4 0;
#X connect 12 0 11 0;
#X connect 12 0 36 0;
#X connect 13 0 10 0;
#X connect 14 0 10 0;
#X connect 15 0 2 0;
#X connect 16 0 10 0;
#X connect 17 0 10 0;
#X connect 18 0 10 0;
#X connect 19 0 10 0;
#X connect 20 0 10 0;
#X connect 21 0 10 1;
#X connect 23 0 12 0;
#X connect 23 1 15 0;
#X connect 26 0 9 0;
#X connect 27 0 32 0;
#X connect 28 0 29 1;
#X connect 31 0 33 0;
#X connect 31 0 37 0;
#X connect 32 0 28 0;
#X connect 33 0 38 0;
#X connect 34 0 38 0;
#X connect 35 0 39 0;
#X connect 36 0 0 0;
#X connect 37 0 34 0;
#X connect 38 0 28 1;
#X connect 39 0 31 0;
#X connect 39 1 1 0;
