#N canvas 638 22 892 1028 10;
#X obj 57 227 tabread scores;
#X msg 79 50 4;
#X obj 38 256 f;
#X obj 38 141 r count_request;
#X obj 38 288 s count_response;
#X obj 79 85 s count_request;
#X obj 183 231 r count_response;
#X obj 38 180 t b f f;
#X obj 92 203 s current_num;
#X obj 270 291 r current_num;
#X obj 183 322 tabwrite scores;
#X msg 128 47 8;
#X obj 396 350 array max scores;
#X obj 396 293 bng 15 250 50 0 empty empty empty 17 7 0 10 -262144
-1 -1;
#X floatatom 488 395 5 0 0 0 - - -, f 5;
#X floatatom 396 397 5 0 0 0 - - -, f 5;
#X text 96 115 store tallies for each occurance;
#X text 529 396 number with most occurances;
#X text 418 292 bang this after data is stored;
#X obj 436 543 tabwrite scores;
#X text 497 507 0 out old max;
#X msg 436 511 0;
#X obj 437 478 t b b f;
#X obj 379 591 array max scores;
#X floatatom 472 636 5 0 0 0 - - -, f 5;
#X floatatom 379 638 5 0 0 0 - - -, f 5;
#X msg 183 41 29;
#X obj 183 276 + 1;
#X obj 412 739 tabwrite scores;
#X text 465 704 0 out old max;
#X msg 412 704 0;
#X obj 413 674 t b b f;
#X obj 355 787 array max scores;
#X floatatom 448 832 5 0 0 0 - - -, f 5;
#X floatatom 355 834 5 0 0 0 - - -, f 5;
#X text 513 636 number with 2nd most occurances;
#X text 491 829 number with 3rd most occurances;
#X obj 611 99 array define scores 128;
#X msg 611 67 const 0;
#X obj 611 40 r wipe_array;
#X obj 658 964 outlet;
#X obj 113 8 inlet;
#X text 153 9 send numbers;
#X obj 396 5 inlet;
#X text 439 3 bang to calculate;
#X obj 589 5 inlet;
#X text 632 4 bang to wipe array;
#X obj 658 918 pack f f f;
#X msg 658 940 \$3 \$2 \$1;
#X connect 0 0 2 1;
#X connect 1 0 5 0;
#X connect 2 0 4 0;
#X connect 3 0 7 0;
#X connect 6 0 27 0;
#X connect 7 0 2 0;
#X connect 7 1 0 0;
#X connect 7 2 8 0;
#X connect 9 0 10 1;
#X connect 11 0 5 0;
#X connect 12 0 15 0;
#X connect 12 1 14 0;
#X connect 13 0 12 0;
#X connect 14 0 22 0;
#X connect 14 0 47 2;
#X connect 21 0 19 0;
#X connect 22 0 23 0;
#X connect 22 1 21 0;
#X connect 22 2 19 1;
#X connect 23 0 25 0;
#X connect 23 1 24 0;
#X connect 24 0 31 0;
#X connect 24 0 47 1;
#X connect 26 0 5 0;
#X connect 27 0 10 0;
#X connect 30 0 28 0;
#X connect 31 0 32 0;
#X connect 31 1 30 0;
#X connect 31 2 28 1;
#X connect 32 0 34 0;
#X connect 32 1 33 0;
#X connect 33 0 47 0;
#X connect 38 0 37 0;
#X connect 39 0 38 0;
#X connect 41 0 5 0;
#X connect 43 0 13 0;
#X connect 45 0 38 0;
#X connect 47 0 48 0;
#X connect 48 0 40 0;
