#N canvas 946 287 450 516 10;
#X obj 201 56 inlet;
#X obj 87 107 metro 5000;
#X obj 87 72 tgl 15 0 empty empty empty 17 7 0 10 -262144 -1 -1 1 1
;
#X obj 201 122 * 0.5;
#X msg 87 191 10 \$1;
#X obj 87 155 f;
#X floatatom 220 158 5 0 0 0 - - -, f 5;
#X floatatom 219 91 5 0 0 0 - - -, f 5;
#X obj 174 220 delay;
#X obj 87 43 loadbang;
#X obj 87 381 line;
#X obj 87 421 outlet;
#X text 60 -15 generates triangle/ramps for gain~ with an inlet to
control time;
#X text 247 54 inlet for ramp period;
#X obj 174 253 f;
#X msg 174 290 -40 \$1;
#X connect 0 0 1 1;
#X connect 0 0 3 0;
#X connect 0 0 7 0;
#X connect 1 0 5 0;
#X connect 1 0 8 0;
#X connect 2 0 1 0;
#X connect 3 0 5 1;
#X connect 3 0 6 0;
#X connect 3 0 8 1;
#X connect 3 0 14 1;
#X connect 4 0 10 0;
#X connect 5 0 4 0;
#X connect 8 0 14 0;
#X connect 9 0 2 0;
#X connect 10 0 11 0;
#X connect 14 0 15 0;
#X connect 15 0 10 0;
