#N canvas 693 286 721 622 10;
#X obj 121 107 openpanel;
#X obj 121 201 soundfiler;
#N canvas 0 50 450 300 (subpatch) 0;
#X array \$0-source 8.24894e+06 float 0;
#X coords 0 1 8.24893e+06 -1 120 30 1;
#X restore 350 83 graph;
#X obj 121 82 bng 15 250 50 0 empty empty empty 17 7 0 10 -262144 -1
-1;
#X obj 121 43 inlet;
#X text 169 42 bang -> open;
#X obj 123 387 outlet~;
#X text 496 61 jmej 2017;
#X floatatom 121 227 5 0 0 0 - - -, f 5;
#X text 159 227 size of sound file;
#X text 433 181 load sound file;
#X obj 121 252 expr 44100 / $f1;
#X text 248 253 divide size by sample rate;
#X obj 121 286 phasor~;
#X obj 122 319 *~;
#X text 188 285 set phasor~ to sweep table at that rate;
#X text 156 318 set phasor~ amplitude equal to the size (end) of table
;
#X text 495 44 simple sample player;
#X obj 122 348 tabread4~ \$0-source;
#X obj 217 90 loadbang;
#X obj 219 115 f \$0;
#X msg 121 179 read -resize -maxsize 1e+07 \$1 \$2;
#X obj 121 148 pack s s;
#X obj 219 146 makefilename %d-source;
#X connect 0 0 22 0;
#X connect 1 0 8 0;
#X connect 3 0 0 0;
#X connect 4 0 3 0;
#X connect 8 0 11 0;
#X connect 8 0 14 1;
#X connect 11 0 13 0;
#X connect 13 0 14 0;
#X connect 14 0 18 0;
#X connect 18 0 6 0;
#X connect 19 0 20 0;
#X connect 20 0 23 0;
#X connect 21 0 1 0;
#X connect 22 0 21 0;
#X connect 23 0 22 1;
