#N canvas 660 192 679 678 10;
#X obj 121 107 openpanel;
#X obj 121 200 soundfiler;
#N canvas 0 50 450 300 (subpatch) 0;
#X array \$0-source 8.24894e+006 float 0;
#X coords 0 1 8.24893e+006 -1 500 250 1 0 0;
#X restore 26 414 graph;
#X obj 121 82 bng 15 250 50 0 empty empty empty 17 7 0 10 -262144 -1
-1;
#X obj 121 43 inlet;
#X text 169 42 bang -> open;
#X obj 123 387 outlet~;
#X text 496 61 jmej 2017;
#X text 161 224 size of sound file;
#X obj 121 256 expr 44100 / $f1;
#X text 248 253 divide size by sample rate;
#X obj 121 286 phasor~;
#X obj 122 319 *~;
#X text 188 285 set phasor~ to sweep table at that rate;
#X text 156 318 set phasor~ amplitude equal to the size (end) of table
;
#X text 495 44 simple sample player;
#X obj 122 348 tabread4~ \$0-source;
#X obj 286 44 loadbang;
#X obj 286 69 f \$0;
#X obj 121 148 pack s s;
#X obj 286 93 makefilename %d-source;
#X msg 121 176 read -resize -maxsize 1e+007 \$1 \$2;
#X obj 476 135 bng 15 250 50 0 empty empty empty 17 7 0 10 -262144
-1 -1;
#X msg 476 213 \; \$1 normalize;
#X obj 476 160 f \$0;
#X obj 476 184 makefilename %d-source;
#X obj 41 274 bng 15 250 50 0 empty empty empty 17 7 0 10 -262144 -1
-1;
#X obj 41 294 s \$0-done;
#X obj 476 107 r \$0-done;
#X floatatom 121 226 5 0 0 0 - - -, f 5;
#X connect 0 0 19 0;
#X connect 1 0 26 0;
#X connect 1 0 29 0;
#X connect 3 0 0 0;
#X connect 4 0 3 0;
#X connect 9 0 11 0;
#X connect 11 0 12 0;
#X connect 12 0 16 0;
#X connect 16 0 6 0;
#X connect 17 0 18 0;
#X connect 18 0 20 0;
#X connect 19 0 21 0;
#X connect 20 0 19 1;
#X connect 21 0 1 0;
#X connect 22 0 24 0;
#X connect 24 0 25 0;
#X connect 25 0 23 0;
#X connect 26 0 27 0;
#X connect 28 0 22 0;
#X connect 29 0 9 0;
#X connect 29 0 12 1;
