#N canvas 68 221 665 367 10;
#X obj 135 118 select 0 1 2 3 4 5 6 7 8 9;
#X msg 105 181 a;
#X msg 138 181 b;
#X msg 172 181 c;
#X msg 204 181 d;
#X msg 236 180 e;
#X msg 269 181 f;
#X msg 303 181 g;
#X msg 335 181 h;
#X msg 368 181 i;
#X msg 400 181 j;
#X obj 124 2 inlet;
#X floatatom 85 97 5 0 0 0 - - -, f 5;
#X obj 130 57 random 10;
#X obj 179 247 s file;
#X obj 178 285 r file;
#X obj 179 308 outlet;
#X connect 0 0 1 0;
#X connect 0 1 2 0;
#X connect 0 2 3 0;
#X connect 0 3 4 0;
#X connect 0 4 5 0;
#X connect 0 5 6 0;
#X connect 0 6 7 0;
#X connect 0 7 8 0;
#X connect 0 8 9 0;
#X connect 0 9 10 0;
#X connect 1 0 14 0;
#X connect 2 0 14 0;
#X connect 3 0 14 0;
#X connect 4 0 14 0;
#X connect 5 0 14 0;
#X connect 6 0 14 0;
#X connect 7 0 14 0;
#X connect 8 0 14 0;
#X connect 9 0 14 0;
#X connect 10 0 14 0;
#X connect 11 0 13 0;
#X connect 13 0 0 0;
#X connect 13 0 12 0;
#X connect 15 0 16 0;
