#N canvas 752 259 942 602 10;
#X obj 138 90 simple_play~;
#X obj 138 58 bng 15 250 50 0 empty empty empty 17 7 0 10 -262144 -1
-1;
#X obj 138 127 gain~;
#X obj 132 351 dac~ 1 2;
#X connect 0 0 2 0;
#X connect 1 0 0 0;
#X connect 2 0 3 0;
